<svg width="498" height="365" viewBox="0 0 498 365" fill="none" xmlns="http://www.w3.org/2000/svg">
<path d="M496.926 1.00293H0.786133V364.183H496.926V1.00293Z" fill="white"/>
<path d="M496.926 364.198L0.785844 364.422H0.561612V364.198L0.412109 1.00264V0.628906H0.785844L496.926 0.853149H497.09V1.00264L496.926 364.198ZM496.926 364.198L496.761 1.00264L496.926 1.16708L0.785844 1.37637L1.15958 1.00264L1.01009 364.272L0.785844 364.033L496.926 364.198Z" fill="#263238"/>
<path d="M496.926 1.00293H0.786133V14.9806H496.926V1.00293Z" fill="#263238"/>
<path d="M14.27 7.99926C14.27 8.55808 14.1043 9.10435 13.7938 9.56899C13.4834 10.0336 13.0421 10.3958 12.5258 10.6096C12.0095 10.8235 11.4414 10.8794 10.8934 10.7704C10.3453 10.6614 9.84183 10.3923 9.44669 9.99714C9.05154 9.602 8.78245 9.09855 8.67343 8.55047C8.56441 8.00239 8.62036 7.43429 8.83421 6.91801C9.04806 6.40173 9.4102 5.96046 9.87484 5.65C10.3395 5.33954 10.8858 5.17383 11.4446 5.17383C12.1939 5.17383 12.9126 5.4715 13.4424 6.00137C13.9723 6.53125 14.27 7.24991 14.27 7.99926Z" fill="#2A9D8F"/>
<path d="M25.7661 7.99926C25.7661 8.55808 25.6004 9.10435 25.2899 9.56899C24.9795 10.0336 24.5382 10.3958 24.0219 10.6096C23.5056 10.8235 22.9375 10.8794 22.3895 10.7704C21.8414 10.6614 21.3379 10.3923 20.9428 9.99714C20.5476 9.602 20.2785 9.09855 20.1695 8.55047C20.0605 8.00239 20.1165 7.43429 20.3303 6.91801C20.5442 6.40173 20.9063 5.96046 21.3709 5.65C21.8356 5.33954 22.3818 5.17383 22.9407 5.17383C23.69 5.17383 24.4087 5.4715 24.9386 6.00137C25.4684 6.53125 25.7661 7.24991 25.7661 7.99926Z" fill="white"/>
<path d="M37.2622 7.99926C37.2622 8.55808 37.0965 9.10435 36.786 9.56899C36.4756 10.0336 36.0343 10.3958 35.518 10.6096C35.0017 10.8235 34.4336 10.8794 33.8855 10.7704C33.3375 10.6614 32.834 10.3923 32.4389 9.99714C32.0437 9.602 31.7746 9.09855 31.6656 8.55047C31.5566 8.00239 31.6126 7.43429 31.8264 6.91801C32.0403 6.40173 32.4024 5.96046 32.867 5.65C33.3317 5.33954 33.8779 5.17383 34.4368 5.17383C35.1861 5.17383 35.9048 5.4715 36.4346 6.00137C36.9645 6.53125 37.2622 7.24991 37.2622 7.99926Z" fill="#455A64"/>
<path d="M68.2672 89.9806C68.4427 90.5159 68.3998 91.0989 68.1479 91.6028C67.896 92.1066 67.4553 92.4907 66.9217 92.6715C66.6497 92.7508 66.3679 92.7911 66.0845 92.7911C65.5544 92.797 65.0343 92.6462 64.5896 92.3575C64.0753 92.0245 63.6536 91.5668 63.3638 91.027C62.7464 89.5741 62.4702 87.999 62.5565 86.4226C62.551 85.843 62.391 85.2754 62.0931 84.7782C61.8029 84.3191 61.4085 83.935 60.942 83.657C60.284 83.2382 59.5619 82.9301 58.8042 82.7451H54.3194V91.0569C54.3115 91.6213 54.0808 92.1597 53.6775 92.5545C53.2742 92.9494 52.7311 93.1688 52.1667 93.1648C51.6076 93.1648 51.0715 92.9427 50.6762 92.5474C50.2809 92.1521 50.0588 91.616 50.0588 91.0569V68.4684C50.0548 68.1905 50.1066 67.9146 50.2111 67.6571C50.3156 67.3995 50.4707 67.1655 50.6672 66.969C50.8638 66.7724 51.0977 66.6173 51.3553 66.5128C51.6129 66.4083 51.8888 66.3565 52.1667 66.3606H58.9985C60.6892 66.358 62.3393 66.8786 63.7224 67.8509C65.1055 68.8233 66.1539 70.1997 66.7238 71.7914C67.2937 73.3832 67.3571 75.1122 66.9054 76.7415C66.4537 78.3707 65.509 79.8203 64.2009 80.8914C64.7326 81.308 65.1879 81.8138 65.5464 82.3863C66.3803 83.6057 66.8234 85.05 66.8171 86.5273C66.7757 87.283 66.8259 88.041 66.9666 88.7846C67.257 88.878 67.5237 89.0333 67.7482 89.2398C67.9728 89.4462 68.1498 89.699 68.2672 89.9806ZM62.9003 74.5678C62.9043 74.047 62.8051 73.5306 62.6085 73.0483C62.412 72.566 62.1219 72.1274 61.755 71.7577C61.3881 71.3881 60.9517 71.0947 60.4709 70.8945C59.9902 70.6943 59.4745 70.5912 58.9537 70.5912H54.2297V78.4845H58.9985C60.0284 78.4767 61.0141 78.0652 61.7437 77.3384C62.4733 76.6116 62.8886 75.6275 62.9003 74.5977V74.5678Z" fill="#263238"/>
<path d="M74.4709 91.0868V68.4684C74.4669 68.1905 74.5187 67.9146 74.6232 67.6571C74.7277 67.3995 74.8828 67.1655 75.0793 66.969C75.2759 66.7724 75.5098 66.6173 75.7674 66.5128C76.0249 66.4083 76.3008 66.3565 76.5788 66.3606H89.1213C89.6791 66.3645 90.213 66.5878 90.6074 66.9823C91.0019 67.3767 91.2252 67.9106 91.2292 68.4684C91.2255 69.0305 91.0036 69.5692 90.6104 69.9709C90.2171 70.3725 89.6832 70.6057 89.1213 70.6211H78.6567V77.6324H87.6264C88.1605 77.6772 88.6584 77.921 89.0213 78.3156C89.3841 78.7101 89.5855 79.2266 89.5855 79.7627C89.5855 80.2987 89.3841 80.8152 89.0213 81.2098C88.6584 81.6044 88.1605 81.8482 87.6264 81.893H78.6567V88.9491H89.1213C89.6843 88.9491 90.2243 89.1727 90.6224 89.5708C91.0205 89.9689 91.2441 90.5089 91.2441 91.0719C91.2441 91.6349 91.0205 92.1748 90.6224 92.5729C90.2243 92.971 89.6843 93.1947 89.1213 93.1947H76.6984C76.6236 93.1947 76.6236 93.1947 76.6236 93.1947C76.3431 93.2007 76.0641 93.1506 75.8032 93.0473C75.5423 92.9441 75.3046 92.7897 75.1041 92.5934C74.9036 92.3971 74.7443 92.1627 74.6355 91.904C74.5268 91.6453 74.4709 91.3675 74.4709 91.0868Z" fill="#263238"/>
<path d="M96.3722 86.5275C96.7098 86.125 97.192 85.8713 97.7149 85.821C98.2378 85.7707 98.7595 85.9277 99.1677 86.2584C101.226 88.0146 103.794 89.0628 106.493 89.2483C108.195 89.277 109.866 88.7811 111.277 87.8281C111.756 87.535 112.157 87.1304 112.446 86.6489C112.735 86.1673 112.903 85.623 112.936 85.0624C112.941 84.6293 112.822 84.2037 112.592 83.8366C112.296 83.3742 111.904 82.9815 111.441 82.6855C109.81 81.7713 108.027 81.1585 106.179 80.8766H106.104C104.4 80.5835 102.738 80.0814 101.156 79.3817C99.7062 78.7494 98.4705 77.711 97.598 76.3918C97.0091 75.4516 96.7029 74.3618 96.716 73.2524C96.7545 72.1438 97.0517 71.0595 97.5838 70.0861C98.1159 69.1128 98.8682 68.2773 99.7806 67.6464C101.729 66.2981 104.049 65.5925 106.418 65.6282C109.442 65.7559 112.356 66.7985 114.775 68.6181C115.204 68.9097 115.502 69.3587 115.603 69.868C115.703 70.3773 115.599 70.9058 115.313 71.3389C115.174 71.5572 114.992 71.7454 114.779 71.8925C114.566 72.0396 114.326 72.1426 114.072 72.1955C113.819 72.2484 113.557 72.2502 113.303 72.2006C113.049 72.1511 112.807 72.0512 112.592 71.907C110.831 70.4824 108.677 69.6273 106.418 69.4553C104.884 69.4365 103.38 69.8906 102.113 70.7559C101.686 71.0086 101.327 71.3609 101.067 71.7827C100.807 72.2045 100.653 72.6832 100.618 73.1777C100.595 73.5555 100.689 73.9311 100.887 74.254C101.167 74.644 101.516 74.9786 101.918 75.2407C103.422 76.1494 105.096 76.7397 106.837 76.9748C108.66 77.295 110.437 77.8372 112.129 78.5894C113.679 79.2684 115.006 80.3723 115.956 81.7736C116.566 82.7509 116.887 83.8806 116.883 85.0325C116.854 86.2216 116.539 87.3863 115.964 88.4274C115.389 89.4685 114.57 90.3553 113.579 91.0123C111.51 92.4774 109.028 93.247 106.493 93.2098C102.887 93.0357 99.4379 91.6863 96.6711 89.3678C96.2579 89.0288 95.9949 88.5406 95.9389 88.009C95.883 87.4774 96.0386 86.9452 96.3722 86.5275Z" fill="#263238"/>
<path d="M122.788 91.0871V68.4687C122.781 68.1902 122.832 67.9134 122.936 67.6549C123.039 67.3964 123.194 67.1616 123.391 66.9646C123.588 66.7676 123.823 66.6126 124.082 66.5088C124.34 66.4051 124.617 66.3547 124.895 66.3608H137.438C137.996 66.3648 138.53 66.5881 138.924 66.9826C139.319 67.377 139.542 67.9109 139.546 68.4687C139.542 69.0308 139.32 69.5695 138.927 69.9711C138.534 70.3728 138 70.6059 137.438 70.6214H127.048V77.6327H136.018C136.552 77.6775 137.05 77.9213 137.413 78.3159C137.776 78.7104 137.977 79.2269 137.977 79.763C137.977 80.299 137.776 80.8155 137.413 81.2101C137.05 81.6046 136.552 81.8485 136.018 81.8932H127.048V88.9494H137.438C138.001 88.9494 138.541 89.173 138.939 89.5711C139.337 89.9692 139.561 90.5092 139.561 91.0722C139.561 91.6352 139.337 92.1751 138.939 92.5732C138.541 92.9713 138.001 93.195 137.438 93.195H125.015C124.925 93.195 124.925 93.195 124.925 93.195C124.646 93.201 124.367 93.1508 124.107 93.0474C123.847 92.9439 123.61 92.7894 123.411 92.5928C123.212 92.3963 123.054 92.1618 122.947 91.9032C122.84 91.6445 122.786 91.367 122.788 91.0871Z" fill="#263238"/>
<path d="M161.94 70.6212H155.841V91.0868C155.841 91.6459 155.618 92.182 155.223 92.5773C154.828 92.9726 154.292 93.1947 153.733 93.1947C153.174 93.1947 152.637 92.9726 152.242 92.5773C151.847 92.182 151.625 91.6459 151.625 91.0868V70.6212H145.555C144.991 70.6133 144.453 70.3825 144.058 69.9792C143.663 69.5759 143.443 69.0328 143.447 68.4684C143.443 68.1905 143.495 67.9146 143.6 67.6571C143.704 67.3995 143.859 67.1655 144.056 66.969C144.252 66.7724 144.486 66.6173 144.744 66.5128C145.002 66.4083 145.277 66.3565 145.555 66.3606H162C162.277 66.3586 162.552 66.4117 162.809 66.517C163.065 66.6222 163.298 66.7774 163.495 66.9735C163.691 67.1697 163.846 67.4028 163.951 67.6594C164.056 67.9161 164.109 68.1911 164.108 68.4684C164.104 69.0407 163.873 69.5883 163.467 69.9915C163.061 70.3948 162.512 70.6212 161.94 70.6212Z" fill="#263238"/>
<path d="M59.4765 122.705H54.7674V131.032C54.7226 131.566 54.4788 132.064 54.0842 132.427C53.6897 132.79 53.1732 132.991 52.6371 132.991C52.1011 132.991 51.5846 132.79 51.19 132.427C50.7955 132.064 50.5516 131.566 50.5068 131.032V108.399C50.5068 107.84 50.7289 107.304 51.1242 106.908C51.5195 106.513 52.0557 106.291 52.6147 106.291H59.4765C61.6571 106.291 63.7484 107.157 65.2904 108.699C66.8323 110.241 67.6986 112.333 67.6986 114.513C67.6986 116.694 66.8323 118.785 65.2904 120.327C63.7484 121.869 61.6571 122.735 59.4765 122.735V122.705ZM54.7674 118.385H59.4765C60.5232 118.385 61.527 117.969 62.2671 117.229C63.0073 116.489 63.4231 115.485 63.4231 114.438C63.4231 113.392 63.0073 112.388 62.2671 111.648C61.527 110.908 60.5232 110.492 59.4765 110.492H54.7674V118.385Z" fill="#263238"/>
<path d="M83.8741 126.817H74.5457L72.677 131.84C72.4493 132.327 72.0463 132.711 71.5484 132.914C71.0504 133.118 70.4942 133.126 69.9905 132.937C69.4868 132.748 69.0728 132.377 68.8309 131.896C68.5891 131.416 68.5371 130.862 68.6855 130.345L77.1618 107.772C77.3214 107.366 77.6022 107.019 77.966 106.778C78.3298 106.537 78.7589 106.414 79.1949 106.426C79.6319 106.41 80.063 106.531 80.4276 106.772C80.7923 107.014 81.0722 107.363 81.228 107.772L89.7043 130.345C89.8904 130.881 89.8621 131.468 89.6253 131.984C89.3884 132.499 88.9615 132.903 88.4337 133.111C88.1983 133.193 87.9504 133.233 87.7011 133.23C87.2768 133.231 86.8623 133.103 86.5125 132.863C86.1628 132.622 85.8943 132.281 85.7428 131.885L83.8741 126.817ZM82.3792 122.587L79.2697 114.349L76.1602 122.587H82.3792Z" fill="#263238"/>
<path d="M93.4567 126.458C93.7943 126.055 94.2765 125.802 94.7994 125.751C95.3223 125.701 95.844 125.858 96.2522 126.189C98.3029 127.957 100.875 129.007 103.577 129.179C105.285 129.207 106.96 128.712 108.376 127.758C108.856 127.467 109.257 127.063 109.544 126.581C109.83 126.099 109.994 125.553 110.021 124.993C110.026 124.56 109.907 124.134 109.677 123.767C109.377 123.308 108.985 122.916 108.526 122.616C106.893 121.707 105.111 121.1 103.264 120.822H103.189C101.484 120.529 99.8222 120.027 98.2405 119.327C96.7935 118.69 95.5589 117.653 94.6826 116.337C94.0947 115.391 93.7888 114.297 93.8005 113.183C93.839 112.076 94.1363 110.994 94.6685 110.023C95.2007 109.052 95.953 108.219 96.8652 107.592C98.8118 106.239 101.132 105.528 103.503 105.559C106.525 105.695 109.436 106.737 111.859 108.548C112.289 108.84 112.586 109.289 112.687 109.798C112.788 110.308 112.684 110.836 112.398 111.269C112.261 111.49 112.081 111.681 111.868 111.831C111.656 111.981 111.416 112.086 111.161 112.141C110.907 112.195 110.645 112.198 110.39 112.148C110.135 112.098 109.892 111.998 109.677 111.852C107.915 110.428 105.762 109.573 103.503 109.401C101.972 109.374 100.471 109.829 99.2122 110.701C98.7834 110.947 98.4224 111.296 98.1615 111.716C97.9006 112.136 97.748 112.614 97.7173 113.108C97.693 113.486 97.7871 113.862 97.9864 114.184C98.2607 114.583 98.6113 114.924 99.0179 115.186C100.503 116.06 102.142 116.639 103.847 116.89H103.921C105.744 117.206 107.521 117.743 109.213 118.49C110.764 119.169 112.091 120.273 113.04 121.674C113.646 122.653 113.967 123.782 113.967 124.933C113.939 126.122 113.624 127.287 113.048 128.328C112.473 129.369 111.655 130.256 110.663 130.913C108.592 132.373 106.111 133.137 103.577 133.095C99.9741 132.923 96.5255 131.579 93.7557 129.268C93.3543 128.928 93.0994 128.446 93.0437 127.923C92.9881 127.4 93.1359 126.875 93.4567 126.458Z" fill="#263238"/>
<path d="M118.647 126.458C118.985 126.055 119.467 125.802 119.99 125.751C120.513 125.701 121.035 125.858 121.443 126.189C123.493 127.957 126.066 129.007 128.768 129.179C130.475 129.207 132.15 128.712 133.567 127.758C134.047 127.467 134.447 127.063 134.734 126.581C135.021 126.099 135.185 125.553 135.211 124.993C135.217 124.56 135.097 124.134 134.867 123.767C134.567 123.308 134.175 122.916 133.716 122.616C132.089 121.707 130.312 121.099 128.469 120.822H128.379C126.679 120.531 125.022 120.029 123.446 119.327C121.992 118.695 120.752 117.657 119.873 116.337C119.291 115.388 118.986 114.296 118.991 113.183C119.03 112.076 119.327 110.994 119.859 110.023C120.391 109.052 121.144 108.219 122.056 107.592C124.002 106.239 126.323 105.528 128.693 105.559C131.715 105.695 134.627 106.737 137.05 108.548C137.48 108.84 137.777 109.289 137.878 109.798C137.978 110.308 137.874 110.836 137.588 111.269C137.451 111.49 137.271 111.681 137.059 111.831C136.847 111.981 136.606 112.086 136.352 112.141C136.098 112.195 135.835 112.198 135.58 112.148C135.325 112.098 135.083 111.998 134.867 111.852C133.106 110.428 130.952 109.573 128.693 109.401C127.163 109.377 125.663 109.832 124.403 110.701C123.974 110.947 123.613 111.296 123.352 111.716C123.091 112.136 122.939 112.614 122.908 113.108C122.884 113.486 122.978 113.862 123.177 114.184C123.451 114.583 123.802 114.924 124.208 115.186C125.686 116.049 127.315 116.622 129.007 116.875H129.082C130.905 117.191 132.682 117.728 134.374 118.475C135.928 119.156 137.259 120.259 138.216 121.659C138.811 122.642 139.126 123.769 139.128 124.918C139.094 126.104 138.778 127.265 138.206 128.305C137.634 129.345 136.823 130.234 135.839 130.898C133.761 132.354 131.276 133.118 128.738 133.08C125.135 132.908 121.686 131.564 118.916 129.253C118.524 128.909 118.277 128.429 118.227 127.909C118.177 127.389 118.327 126.87 118.647 126.458Z" fill="#263238"/>
<path d="M179.461 109.416L170.058 131.84C170.022 131.97 169.961 132.092 169.878 132.199C169.819 132.283 169.754 132.363 169.684 132.438C169.684 132.513 169.684 132.513 169.684 132.542C169.587 132.597 169.497 132.662 169.415 132.737C169.295 132.737 169.221 132.931 169.071 132.961C168.964 132.977 168.859 133.002 168.757 133.036C168.634 133.06 168.507 133.06 168.383 133.036C168.265 133.058 168.143 133.058 168.025 133.036H167.92C167.833 133.003 167.743 132.977 167.651 132.961C167.651 132.961 167.651 132.961 167.576 132.961C167.441 132.925 167.32 132.846 167.232 132.737L166.963 132.542V132.438C166.963 132.348 166.844 132.273 166.814 132.199C166.784 132.124 166.739 132.199 166.739 132.199C166.661 132.091 166.605 131.969 166.575 131.84L161.552 119.88L156.17 131.84C156.132 131.964 156.082 132.084 156.02 132.199L155.781 132.438C155.781 132.513 155.781 132.513 155.781 132.542C155.692 132.594 155.611 132.66 155.542 132.737H155.467C155.348 132.737 155.243 132.931 155.168 132.961C155.064 132.962 154.962 132.988 154.869 133.036H154.75C154.636 133.058 154.519 133.058 154.406 133.036C154.277 133.058 154.146 133.058 154.017 133.036H153.912C153.825 133.003 153.735 132.977 153.643 132.961C153.643 132.961 153.643 132.961 153.569 132.961C153.438 132.913 153.321 132.837 153.225 132.737C153.105 132.662 153.075 132.587 152.956 132.542V132.438C152.881 132.348 152.836 132.273 152.761 132.199C152.69 132.082 152.625 131.963 152.567 131.84L143.134 109.416C143.029 109.162 142.976 108.889 142.978 108.615C142.979 108.34 143.035 108.068 143.142 107.815C143.249 107.562 143.405 107.333 143.601 107.141C143.797 106.948 144.03 106.797 144.285 106.695C144.536 106.585 144.806 106.526 145.08 106.523C145.354 106.519 145.625 106.57 145.879 106.673C146.133 106.776 146.363 106.929 146.557 107.123C146.75 107.317 146.903 107.547 147.006 107.801L154.481 125.561L159.16 113.901C159.32 113.506 159.595 113.169 159.95 112.935C160.305 112.7 160.722 112.578 161.148 112.585C161.573 112.589 161.988 112.715 162.343 112.948C162.698 113.181 162.979 113.512 163.151 113.901L168.099 125.666L175.604 107.921C175.83 107.406 176.251 107 176.774 106.793C177.298 106.586 177.882 106.594 178.4 106.815C178.872 107.034 179.245 107.424 179.441 107.907C179.638 108.389 179.645 108.928 179.461 109.416Z" fill="#263238"/>
<path d="M206.175 109.624C208.679 112.24 210.077 115.721 210.077 119.342C210.077 122.962 208.679 126.443 206.175 129.059C205.014 130.338 203.6 131.364 202.023 132.071C200.446 132.779 198.74 133.153 197.011 133.17C195.249 133.161 193.507 132.792 191.892 132.085C190.278 131.378 188.825 130.348 187.623 129.059C185.173 126.416 183.812 122.945 183.812 119.342C183.812 115.738 185.173 112.267 187.623 109.624C188.821 108.331 190.273 107.3 191.889 106.595C193.505 105.89 195.249 105.527 197.011 105.528C198.74 105.536 200.448 105.904 202.026 106.61C203.604 107.315 205.017 108.342 206.175 109.624ZM205.682 119.327C205.683 116.843 204.755 114.449 203.081 112.614C202.305 111.758 201.357 111.073 200.3 110.605C199.244 110.136 198.1 109.894 196.944 109.894C195.788 109.894 194.645 110.136 193.588 110.605C192.531 111.073 191.584 111.758 190.807 112.614C189.116 114.438 188.185 116.839 188.206 119.327C188.177 121.806 189.11 124.201 190.807 126.009C191.579 126.874 192.524 127.566 193.582 128.04C194.639 128.514 195.785 128.759 196.944 128.759C198.103 128.759 199.249 128.514 200.307 128.04C201.364 127.566 202.31 126.874 203.081 126.009C204.76 124.19 205.69 121.803 205.682 119.327Z" fill="#263238"/>
<path d="M235.401 129.956C235.491 130.22 235.529 130.499 235.51 130.778C235.491 131.056 235.417 131.328 235.292 131.577C235.166 131.827 234.992 132.049 234.78 132.23C234.568 132.411 234.321 132.548 234.055 132.632C233.783 132.711 233.501 132.752 233.218 132.752C232.69 132.755 232.172 132.61 231.723 132.333C231.215 131.986 230.795 131.525 230.497 130.988C229.878 129.535 229.602 127.96 229.69 126.383C229.694 125.804 229.539 125.235 229.241 124.739C228.947 124.288 228.553 123.909 228.09 123.632C227.427 123.21 226.7 122.897 225.938 122.706H221.453V131.032C221.445 131.594 221.216 132.13 220.816 132.525C220.416 132.919 219.877 133.14 219.315 133.14C219.038 133.142 218.763 133.089 218.506 132.984C218.249 132.879 218.016 132.723 217.82 132.527C217.624 132.331 217.469 132.098 217.364 131.841C217.258 131.585 217.205 131.31 217.207 131.032V108.399C217.203 108.121 217.255 107.845 217.359 107.588C217.464 107.33 217.619 107.096 217.816 106.9C218.012 106.703 218.246 106.548 218.504 106.443C218.761 106.339 219.037 106.287 219.315 106.291H226.177C227.258 106.291 228.329 106.505 229.328 106.92C230.327 107.335 231.233 107.944 231.996 108.711C232.759 109.478 233.362 110.388 233.772 111.389C234.182 112.39 234.39 113.462 234.384 114.543C234.383 115.746 234.114 116.934 233.597 118.02C233.08 119.106 232.327 120.063 231.394 120.822C231.918 121.247 232.372 121.751 232.74 122.317C233.565 123.54 234.002 124.983 233.995 126.458C233.962 127.219 234.013 127.98 234.145 128.73C234.434 128.825 234.698 128.985 234.915 129.197C235.133 129.41 235.299 129.669 235.401 129.956ZM230.034 114.543C230.04 114.021 229.942 113.503 229.746 113.019C229.551 112.535 229.261 112.095 228.894 111.724C228.527 111.352 228.09 111.058 227.608 110.856C227.126 110.655 226.609 110.552 226.087 110.552H221.363V118.385H226.087C227.109 118.378 228.088 117.972 228.817 117.255C229.545 116.538 229.966 115.565 229.989 114.543H230.034Z" fill="#263238"/>
<path d="M241.576 131.032V108.399C241.572 108.121 241.623 107.845 241.728 107.588C241.832 107.33 241.987 107.096 242.184 106.9C242.38 106.703 242.614 106.548 242.872 106.443C243.13 106.339 243.405 106.287 243.683 106.291H248.168C251.737 106.291 255.159 107.709 257.682 110.232C260.205 112.755 261.623 116.177 261.623 119.746C261.623 123.314 260.205 126.736 257.682 129.259C255.159 131.783 251.737 133.2 248.168 133.2H243.683C243.401 133.202 243.121 133.147 242.86 133.038C242.6 132.929 242.364 132.769 242.167 132.566C241.97 132.364 241.816 132.123 241.714 131.86C241.613 131.596 241.565 131.315 241.576 131.032ZM245.866 128.85H248.243C250.673 128.85 253.004 127.884 254.723 126.166C256.441 124.447 257.407 122.116 257.407 119.686C257.407 117.255 256.441 114.925 254.723 113.206C253.004 111.487 250.673 110.522 248.243 110.522H245.866V128.85Z" fill="#263238"/>
<path d="M50.3877 171.186V178.377C50.3877 178.456 50.3562 178.532 50.3002 178.588C50.2441 178.644 50.1681 178.676 50.0888 178.676C50.0095 178.676 49.9334 178.644 49.8773 178.588C49.8213 178.532 49.7898 178.456 49.7898 178.377V170.319C49.7699 170.258 49.7693 170.192 49.788 170.131C49.8067 170.069 49.8439 170.015 49.8944 169.975C49.964 169.935 50.0455 169.921 50.1247 169.934C50.2039 169.948 50.2758 169.989 50.3279 170.05L55.6499 177.435V170.289C55.6397 170.243 55.64 170.196 55.6506 170.15C55.6613 170.104 55.6821 170.061 55.7115 170.025C55.7409 169.988 55.7782 169.958 55.8206 169.938C55.863 169.918 55.9094 169.907 55.9564 169.907C56.0034 169.907 56.0498 169.918 56.0922 169.938C56.1346 169.958 56.1718 169.988 56.2013 170.025C56.2307 170.061 56.2515 170.104 56.2621 170.15C56.2728 170.196 56.273 170.243 56.2628 170.289V178.377C56.2629 178.417 56.2547 178.458 56.2387 178.495C56.2228 178.532 56.1994 178.566 56.1701 178.594C56.1407 178.622 56.1059 178.643 56.0679 178.658C56.0299 178.672 55.9894 178.678 55.9489 178.676C55.9023 178.677 55.8561 178.667 55.8144 178.646C55.7726 178.625 55.7367 178.594 55.7097 178.556L50.3877 171.186Z" fill="black"/>
<path d="M58.8488 175.612C58.819 174.819 59.1055 174.047 59.6452 173.465C60.1849 172.883 60.9336 172.54 61.7265 172.51C62.5195 172.48 63.2918 172.767 63.8735 173.306C64.4553 173.846 64.7988 174.595 64.8285 175.388C64.8286 175.426 64.8208 175.464 64.8056 175.5C64.7904 175.535 64.7681 175.567 64.7401 175.594C64.7122 175.621 64.679 175.641 64.6428 175.655C64.6066 175.668 64.5681 175.674 64.5295 175.672H59.4468C59.4659 176.297 59.7249 176.891 60.1702 177.331C60.6155 177.771 61.2129 178.022 61.8387 178.034C62.2364 178.033 62.6273 177.93 62.9731 177.733C63.3189 177.537 63.6079 177.254 63.812 176.912C63.8524 176.846 63.9172 176.798 63.9925 176.778C64.0679 176.759 64.1479 176.769 64.2156 176.808C64.2511 176.829 64.282 176.858 64.3065 176.891C64.3309 176.925 64.3486 176.962 64.3583 177.003C64.368 177.043 64.3697 177.085 64.3631 177.126C64.3566 177.167 64.342 177.206 64.3202 177.241C64.0546 177.661 63.6886 178.008 63.2554 178.251C62.8221 178.493 62.3352 178.624 61.8387 178.632C61.4435 178.632 61.0522 178.553 60.6875 178.401C60.3228 178.249 59.9919 178.026 59.7139 177.745C59.4358 177.465 59.2162 177.131 59.0677 176.765C58.9192 176.399 58.8448 176.007 58.8488 175.612ZM59.4916 175.119H64.1409C64.0529 174.569 63.7736 174.068 63.3524 173.705C62.9312 173.341 62.3951 173.137 61.8387 173.13C61.2651 173.136 60.7125 173.347 60.2817 173.726C59.8508 174.104 59.5705 174.625 59.4916 175.193V175.119Z" fill="black"/>
<path d="M68.6715 178.631C68.6163 178.596 68.5743 178.543 68.5519 178.482L66.2497 172.995C66.2325 172.96 66.2227 172.922 66.221 172.883C66.2193 172.844 66.2256 172.805 66.2396 172.768C66.2537 172.732 66.2751 172.699 66.3025 172.671C66.33 172.643 66.3629 172.621 66.3992 172.607C66.4725 172.577 66.5546 172.578 66.6275 172.609C66.7003 172.639 66.758 172.698 66.7879 172.771L68.821 177.615L70.3159 174.236C70.3422 174.179 70.3843 174.13 70.4373 174.096C70.4903 174.062 70.5519 174.044 70.6149 174.044C70.6779 174.044 70.7395 174.062 70.7925 174.096C70.8455 174.13 70.8877 174.179 70.9139 174.236L72.4088 177.615L74.427 172.771C74.4626 172.699 74.5233 172.643 74.5976 172.612C74.672 172.582 74.7549 172.58 74.8306 172.607C74.8669 172.621 74.8998 172.643 74.9273 172.671C74.9547 172.699 74.9761 172.732 74.9902 172.768C75.0042 172.805 75.0105 172.844 75.0088 172.883C75.0071 172.922 74.9973 172.96 74.9801 172.995L72.6929 178.467C72.6667 178.526 72.6254 178.578 72.5733 178.616C72.5244 178.63 72.4726 178.63 72.4238 178.616C72.37 178.609 72.3193 178.587 72.2772 178.552C72.2351 178.518 72.2031 178.473 72.1846 178.422L70.7644 175.028L69.3442 178.422C69.3236 178.477 69.287 178.525 69.2391 178.56C69.1912 178.594 69.1342 178.614 69.0751 178.616H68.9705L68.6715 178.631Z" fill="black"/>
<path d="M81.333 170.199C81.333 170.12 81.3645 170.044 81.4206 169.988C81.4767 169.932 81.5527 169.9 81.632 169.9H84.1136C84.7757 169.9 85.4107 170.163 85.8789 170.632C86.3471 171.1 86.6101 171.735 86.6101 172.397C86.6101 173.059 86.3471 173.694 85.8789 174.162C85.4107 174.63 84.7757 174.893 84.1136 174.893H81.9459V178.347C81.946 178.387 81.9378 178.427 81.9218 178.465C81.9059 178.502 81.8825 178.536 81.8531 178.564C81.8238 178.592 81.789 178.613 81.751 178.627C81.713 178.642 81.6725 178.648 81.632 178.646C81.5527 178.646 81.4767 178.614 81.4206 178.558C81.3645 178.502 81.333 178.426 81.333 178.347V170.199ZM84.1136 174.31C84.6173 174.303 85.0979 174.098 85.4527 173.74C85.8075 173.383 86.0083 172.901 86.0122 172.397C86.0082 171.896 85.8064 171.417 85.4508 171.064C85.0952 170.711 84.6145 170.513 84.1136 170.513H81.9459V174.31H84.1136Z" fill="black"/>
<path d="M93.666 172.83V178.376C93.666 178.456 93.6345 178.532 93.5784 178.588C93.5224 178.644 93.4463 178.675 93.367 178.675C93.2877 178.675 93.2117 178.644 93.1556 178.588C93.0995 178.532 93.068 178.456 93.068 178.376V177.465C92.7987 177.829 92.4502 178.127 92.0488 178.337C91.6474 178.546 91.2036 178.662 90.7509 178.675C89.9731 178.621 89.2449 178.274 88.7132 177.704C88.1814 177.134 87.8857 176.383 87.8857 175.603C87.8857 174.824 88.1814 174.073 88.7132 173.503C89.2449 172.933 89.9731 172.586 90.7509 172.531C91.2024 172.543 91.6454 172.656 92.0467 172.863C92.448 173.07 92.7972 173.366 93.068 173.727V172.83C93.068 172.751 93.0995 172.675 93.1556 172.619C93.2117 172.563 93.2877 172.531 93.367 172.531C93.4463 172.531 93.5224 172.563 93.5784 172.619C93.6345 172.675 93.666 172.751 93.666 172.83ZM93.068 175.596C93.036 175.146 92.8734 174.715 92.6001 174.356C92.3268 173.998 91.9548 173.726 91.5296 173.576C91.1044 173.425 90.6445 173.402 90.2064 173.509C89.7683 173.617 89.3709 173.849 89.0631 174.179C88.7553 174.509 88.5504 174.921 88.4735 175.365C88.3966 175.81 88.4511 176.267 88.6303 176.681C88.8095 177.095 89.1056 177.447 89.4823 177.696C89.8589 177.944 90.2999 178.076 90.7509 178.077C91.3867 178.054 91.9874 177.78 92.4216 177.315C92.8558 176.85 93.0882 176.232 93.068 175.596Z" fill="black"/>
<path d="M95.8487 177.391C95.8767 177.361 95.9103 177.338 95.9476 177.322C95.9848 177.306 96.025 177.298 96.0655 177.298C96.1061 177.298 96.1462 177.306 96.1835 177.322C96.2207 177.338 96.2544 177.361 96.2823 177.391C96.8134 177.822 97.4678 178.073 98.151 178.108C98.5778 178.12 98.9953 177.982 99.3319 177.719C99.4659 177.644 99.5787 177.536 99.6597 177.405C99.7408 177.275 99.7874 177.126 99.7954 176.972C99.784 176.821 99.7375 176.675 99.6597 176.545C99.5818 176.415 99.4747 176.306 99.3469 176.225C98.9578 175.968 98.5106 175.814 98.0463 175.776C97.5545 175.716 97.0809 175.553 96.656 175.298C96.4578 175.189 96.2923 175.028 96.1767 174.834C96.0611 174.64 95.9995 174.418 95.9982 174.191C96.0027 173.952 96.0648 173.716 96.1793 173.506C96.2938 173.295 96.4573 173.115 96.656 172.981C97.1051 172.705 97.6242 172.565 98.151 172.577C98.8112 172.608 99.4467 172.837 99.9748 173.235C100.044 173.28 100.092 173.352 100.109 173.433C100.126 173.514 100.11 173.599 100.064 173.668C100.022 173.732 99.9559 173.777 99.8807 173.794C99.8055 173.811 99.7267 173.798 99.6608 173.758C99.2394 173.399 98.7171 173.18 98.1659 173.13C97.7477 173.113 97.3364 173.24 96.9998 173.489C96.8849 173.568 96.79 173.672 96.7225 173.794C96.655 173.916 96.6169 174.052 96.6112 174.191C96.6111 174.315 96.6427 174.436 96.7029 174.543C96.7631 174.65 96.8499 174.74 96.955 174.804C97.3358 175.041 97.7649 175.189 98.2107 175.238C98.7363 175.304 99.2439 175.472 99.7057 175.731C99.9123 175.867 100.082 176.053 100.199 176.271C100.317 176.488 100.378 176.732 100.378 176.98C100.378 177.227 100.317 177.471 100.199 177.688C100.082 177.906 99.9123 178.092 99.7057 178.228C99.2726 178.547 98.7489 178.72 98.2107 178.721C97.3802 178.691 96.5846 178.38 95.9534 177.839C95.9094 177.825 95.8698 177.799 95.8384 177.765C95.8071 177.731 95.7851 177.689 95.7746 177.644C95.7641 177.599 95.7654 177.552 95.7784 177.508C95.7914 177.463 95.8156 177.423 95.8487 177.391Z" fill="black"/>
<path d="M101.904 177.39C101.93 177.361 101.963 177.338 101.999 177.322C102.035 177.306 102.074 177.298 102.113 177.298C102.152 177.298 102.191 177.306 102.227 177.322C102.263 177.338 102.296 177.361 102.322 177.39C102.861 177.818 103.519 178.069 104.206 178.107C104.629 178.122 105.042 177.984 105.372 177.719C105.506 177.643 105.619 177.535 105.7 177.404C105.781 177.274 105.827 177.125 105.835 176.971C105.827 176.821 105.783 176.676 105.708 176.546C105.633 176.416 105.528 176.306 105.402 176.224C105.012 175.97 104.565 175.816 104.101 175.775C103.609 175.717 103.135 175.554 102.711 175.297C102.511 175.188 102.343 175.029 102.225 174.835C102.107 174.64 102.043 174.418 102.038 174.191C102.044 173.949 102.109 173.713 102.226 173.503C102.343 173.292 102.51 173.112 102.711 172.98C103.16 172.703 103.679 172.563 104.206 172.576C104.871 172.607 105.511 172.836 106.045 173.234C106.099 173.283 106.134 173.351 106.144 173.424C106.154 173.497 106.138 173.571 106.099 173.633C106.06 173.695 106 173.742 105.93 173.765C105.86 173.787 105.784 173.785 105.716 173.757C105.298 173.393 104.774 173.173 104.221 173.129C103.803 173.117 103.393 173.243 103.055 173.488C102.942 173.569 102.849 173.674 102.782 173.796C102.715 173.917 102.675 174.052 102.666 174.191C102.669 174.315 102.704 174.436 102.766 174.543C102.829 174.651 102.918 174.74 103.025 174.803C103.406 175.04 103.835 175.189 104.281 175.237C104.807 175.299 105.316 175.467 105.776 175.73C105.986 175.865 106.159 176.051 106.28 176.271C106.4 176.49 106.463 176.736 106.463 176.986C106.46 177.234 106.396 177.477 106.276 177.693C106.156 177.91 105.984 178.093 105.776 178.227C105.342 178.544 104.818 178.717 104.281 178.72C103.446 178.686 102.647 178.376 102.008 177.838C101.967 177.821 101.93 177.794 101.901 177.76C101.872 177.725 101.852 177.685 101.841 177.641C101.831 177.597 101.832 177.551 101.842 177.508C101.853 177.464 101.874 177.424 101.904 177.39Z" fill="black"/>
<path d="M110.365 178.631C110.31 178.596 110.268 178.543 110.245 178.482L107.943 172.995C107.926 172.96 107.916 172.922 107.914 172.883C107.913 172.844 107.919 172.805 107.933 172.768C107.947 172.732 107.968 172.699 107.996 172.671C108.023 172.643 108.056 172.621 108.093 172.607C108.166 172.577 108.248 172.578 108.321 172.609C108.394 172.639 108.451 172.698 108.481 172.771L110.514 177.615L111.935 174.236C111.961 174.179 112.003 174.13 112.056 174.096C112.109 174.062 112.171 174.044 112.234 174.044C112.296 174.044 112.358 174.062 112.411 174.096C112.464 174.13 112.506 174.179 112.533 174.236L113.953 177.615L115.971 172.771C116.004 172.7 116.062 172.644 116.133 172.614C116.205 172.583 116.286 172.581 116.36 172.607C116.397 172.62 116.432 172.64 116.461 172.668C116.49 172.695 116.513 172.728 116.528 172.764C116.544 172.801 116.551 172.841 116.551 172.88C116.55 172.92 116.541 172.959 116.524 172.995L114.311 178.467C114.285 178.526 114.244 178.578 114.192 178.616C114.143 178.63 114.091 178.63 114.042 178.616C113.989 178.609 113.938 178.587 113.896 178.552C113.854 178.518 113.822 178.473 113.803 178.422L112.383 175.028L110.888 178.422C110.867 178.477 110.831 178.525 110.783 178.56C110.735 178.594 110.678 178.614 110.619 178.616H110.514L110.365 178.631Z" fill="black"/>
<path d="M121.428 172.532C122.043 172.499 122.655 172.651 123.183 172.97C123.711 173.288 124.131 173.758 124.389 174.318C124.647 174.878 124.731 175.502 124.63 176.11C124.53 176.719 124.248 177.283 123.824 177.729C123.399 178.176 122.849 178.485 122.247 178.616C121.645 178.747 121.017 178.694 120.444 178.465C119.872 178.235 119.382 177.839 119.038 177.327C118.694 176.816 118.511 176.213 118.513 175.596C118.503 175.204 118.57 174.813 118.711 174.446C118.853 174.08 119.065 173.745 119.335 173.46C119.606 173.175 119.93 172.947 120.289 172.788C120.648 172.628 121.035 172.541 121.428 172.532ZM121.428 178.078C121.925 178.114 122.421 178 122.852 177.75C123.283 177.5 123.629 177.126 123.844 176.677C124.06 176.228 124.135 175.724 124.061 175.232C123.986 174.739 123.765 174.28 123.426 173.915C123.088 173.55 122.647 173.295 122.161 173.184C121.676 173.073 121.168 173.11 120.704 173.292C120.24 173.473 119.841 173.79 119.56 174.201C119.278 174.612 119.127 175.098 119.126 175.596C119.105 176.23 119.336 176.846 119.767 177.31C120.198 177.775 120.795 178.051 121.428 178.078Z" fill="black"/>
<path d="M126.405 172.846C126.405 172.806 126.413 172.766 126.429 172.728C126.445 172.691 126.469 172.657 126.498 172.629C126.527 172.601 126.562 172.58 126.6 172.566C126.638 172.551 126.679 172.545 126.719 172.547C126.758 172.547 126.796 172.555 126.831 172.57C126.867 172.585 126.899 172.608 126.926 172.636C126.952 172.664 126.973 172.697 126.986 172.733C126.999 172.769 127.005 172.808 127.003 172.846V174.192L127.093 174.042C127.343 173.607 127.699 173.242 128.128 172.981C128.556 172.72 129.043 172.571 129.545 172.547C129.584 172.545 129.624 172.551 129.662 172.566C129.699 172.58 129.733 172.602 129.761 172.63C129.789 172.658 129.811 172.692 129.825 172.729C129.84 172.767 129.846 172.806 129.844 172.846C129.844 172.926 129.812 173.002 129.756 173.058C129.7 173.114 129.624 173.145 129.545 173.145C129.189 173.157 128.842 173.254 128.533 173.429C128.223 173.603 127.96 173.849 127.766 174.147C127.438 174.6 127.191 175.106 127.033 175.642C127.024 175.671 127.024 175.702 127.033 175.732V178.437C127.033 178.514 127.004 178.588 126.951 178.644C126.898 178.699 126.826 178.732 126.749 178.736C126.709 178.738 126.668 178.732 126.63 178.718C126.592 178.704 126.557 178.682 126.528 178.654C126.499 178.626 126.475 178.593 126.459 178.555C126.443 178.518 126.435 178.478 126.435 178.437L126.405 172.846Z" fill="black"/>
<path d="M136.511 177.48C136.236 177.847 135.88 178.146 135.47 178.354C135.06 178.561 134.608 178.671 134.149 178.676C133.372 178.622 132.643 178.274 132.112 177.704C131.58 177.134 131.284 176.384 131.284 175.604C131.284 174.824 131.58 174.074 132.112 173.504C132.643 172.933 133.372 172.586 134.149 172.532C134.608 172.536 135.06 172.647 135.47 172.854C135.88 173.062 136.236 173.36 136.511 173.728V170.2C136.511 170.159 136.519 170.119 136.535 170.082C136.551 170.044 136.575 170.011 136.604 169.983C136.633 169.955 136.668 169.933 136.706 169.919C136.744 169.905 136.785 169.899 136.825 169.901C136.905 169.901 136.981 169.932 137.037 169.988C137.093 170.044 137.124 170.12 137.124 170.2V178.377C137.124 178.456 137.093 178.532 137.037 178.588C136.981 178.645 136.905 178.676 136.825 178.676C136.785 178.678 136.744 178.672 136.706 178.658C136.668 178.644 136.633 178.622 136.604 178.594C136.575 178.566 136.551 178.532 136.535 178.495C136.519 178.458 136.511 178.418 136.511 178.377V177.48ZM136.511 175.716V175.507C136.484 174.866 136.207 174.262 135.739 173.823C135.271 173.385 134.651 173.147 134.01 173.16C133.368 173.174 132.758 173.438 132.31 173.896C131.861 174.355 131.61 174.97 131.61 175.611C131.61 176.253 131.861 176.868 132.31 177.326C132.758 177.785 133.368 178.049 134.01 178.063C134.651 178.076 135.271 177.838 135.739 177.4C136.207 176.961 136.484 176.357 136.511 175.716Z" fill="black"/>
<path d="M268.664 185.014H48.9385V209.052H268.664V185.014Z" fill="#EBEBEB"/>
<path d="M53.931 220.549C54.9592 220.55 55.9581 220.892 56.7714 221.521C56.8272 221.579 56.8583 221.657 56.8583 221.738C56.8583 221.818 56.8272 221.896 56.7714 221.955C56.7435 221.984 56.7099 222.007 56.6726 222.023C56.6353 222.039 56.5952 222.048 56.5546 222.048C56.5141 222.048 56.474 222.039 56.4367 222.023C56.3994 222.007 56.3658 221.984 56.3379 221.955C55.6384 221.405 54.7755 221.105 53.8862 221.102C52.8672 221.102 51.89 221.507 51.1695 222.228C50.449 222.948 50.0442 223.925 50.0442 224.944C50.0442 225.963 50.449 226.941 51.1695 227.661C51.89 228.382 52.8672 228.786 53.8862 228.786C54.7736 228.799 55.637 228.498 56.3229 227.934C56.391 227.896 56.4704 227.884 56.5469 227.899C56.6234 227.914 56.692 227.956 56.7405 228.017C56.789 228.078 56.8142 228.154 56.8116 228.232C56.8091 228.31 56.7789 228.385 56.7266 228.443C55.9113 229.066 54.9126 229.403 53.8862 229.399C52.6967 229.399 51.556 228.927 50.7149 228.086C49.8739 227.245 49.4014 226.104 49.4014 224.914C49.4014 223.725 49.8739 222.584 50.7149 221.743C51.556 220.902 52.6967 220.43 53.8862 220.43L53.931 220.549Z" fill="black"/>
<path d="M61.7791 223.315C62.3952 223.279 63.0079 223.429 63.5377 223.745C64.0675 224.062 64.49 224.53 64.7504 225.09C65.0108 225.649 65.0971 226.274 64.9981 226.883C64.8992 227.492 64.6194 228.058 64.1952 228.506C63.771 228.954 63.222 229.265 62.6192 229.397C62.0164 229.529 61.3878 229.478 60.8148 229.248C60.2418 229.019 59.7508 228.623 59.4056 228.112C59.0605 227.6 58.877 226.997 58.8789 226.379C58.8588 225.589 59.1527 224.823 59.6962 224.248C60.2397 223.674 60.9887 223.338 61.7791 223.315ZM61.7791 228.861C62.276 228.897 62.7722 228.783 63.2032 228.533C63.6342 228.283 63.98 227.909 64.1956 227.46C64.4112 227.011 64.4867 226.507 64.4121 226.015C64.3376 225.522 64.1166 225.063 63.7777 224.698C63.4389 224.333 62.998 224.078 62.5124 223.967C62.0268 223.856 61.5189 223.893 61.0549 224.075C60.591 224.256 60.1923 224.573 59.9109 224.984C59.6294 225.395 59.4782 225.881 59.4769 226.379C59.4605 227.012 59.6922 227.625 60.1224 228.089C60.5527 228.553 61.1473 228.83 61.7791 228.861Z" fill="black"/>
<path d="M71.4064 225.826C71.4064 225.573 71.3559 225.322 71.2577 225.089C71.1595 224.856 71.0156 224.644 70.8345 224.467C70.6534 224.29 70.4388 224.152 70.2033 224.059C69.9677 223.966 69.716 223.921 69.4629 223.927C68.9592 223.931 68.477 224.132 68.1194 224.487C67.7618 224.842 67.5572 225.322 67.5494 225.826V229.205C67.5494 229.205 67.5494 229.309 67.5494 229.339C67.5248 229.376 67.4914 229.406 67.4523 229.427C67.4132 229.448 67.3695 229.459 67.3252 229.459H67.2504C67.2083 229.446 67.1693 229.425 67.1358 229.397C67.1024 229.369 67.0752 229.334 67.0561 229.294V223.628C67.0539 223.589 67.0602 223.549 67.0744 223.512C67.0887 223.474 67.1107 223.44 67.1389 223.412C67.1671 223.384 67.2009 223.362 67.2382 223.348C67.2754 223.334 67.3152 223.327 67.3551 223.329C67.3937 223.329 67.4319 223.337 67.4673 223.352C67.5028 223.368 67.5348 223.39 67.5614 223.418C67.588 223.446 67.6086 223.479 67.6219 223.515C67.6353 223.551 67.6411 223.59 67.6391 223.628V224.211C67.9689 223.818 68.4119 223.536 68.908 223.403C69.404 223.27 69.9288 223.294 70.4109 223.471C70.8931 223.647 71.309 223.968 71.6022 224.389C71.8954 224.811 72.0514 225.313 72.0492 225.826V229.16C72.0492 229.239 72.0177 229.315 71.9616 229.371C71.9055 229.427 71.8295 229.459 71.7502 229.459C71.6709 229.459 71.5948 229.427 71.5388 229.371C71.4827 229.315 71.4512 229.239 71.4512 229.16L71.4064 225.826Z" fill="black"/>
<path d="M77.4159 220.998C77.4123 221.076 77.3796 221.15 77.3243 221.205C77.269 221.261 77.195 221.293 77.1169 221.297C76.6834 221.297 76.4591 221.387 76.3395 221.536C76.135 221.833 76.0447 222.194 76.0854 222.553V223.21H76.9375C76.9834 223.2 77.031 223.2 77.0768 223.211C77.1226 223.222 77.1654 223.243 77.202 223.272C77.2387 223.301 77.2683 223.339 77.2887 223.381C77.309 223.423 77.3195 223.47 77.3195 223.517C77.3195 223.564 77.309 223.61 77.2887 223.653C77.2683 223.695 77.2387 223.732 77.202 223.762C77.1654 223.791 77.1226 223.812 77.0768 223.823C77.031 223.833 76.9834 223.833 76.9375 223.823H76.0704V229.175C76.0668 229.253 76.0341 229.327 75.9788 229.383C75.9235 229.438 75.8496 229.471 75.7715 229.474C75.6907 229.474 75.6131 229.443 75.5546 229.388C75.4961 229.332 75.4614 229.256 75.4575 229.175V223.823H74.6353C74.5948 223.823 74.5546 223.815 74.5173 223.799C74.4801 223.783 74.4464 223.76 74.4184 223.73C74.3905 223.701 74.3688 223.666 74.3547 223.628C74.3405 223.59 74.3343 223.55 74.3363 223.509C74.3363 223.43 74.3678 223.354 74.4239 223.298C74.48 223.242 74.556 223.21 74.6353 223.21H75.4426V222.553C75.3768 222.023 75.5158 221.488 75.8312 221.058C75.9987 220.901 76.1965 220.78 76.4126 220.703C76.6286 220.626 76.8581 220.594 77.087 220.609C77.1357 220.608 77.184 220.618 77.2284 220.639C77.2727 220.659 77.3121 220.688 77.3436 220.726C77.375 220.763 77.3978 220.806 77.4104 220.854C77.4229 220.901 77.4248 220.95 77.4159 220.998Z" fill="black"/>
<path d="M79.2546 221.611C79.2444 221.565 79.2446 221.517 79.2552 221.471C79.2659 221.425 79.2867 221.383 79.3161 221.346C79.3455 221.309 79.3828 221.28 79.4252 221.259C79.4676 221.239 79.514 221.229 79.561 221.229C79.608 221.229 79.6544 221.239 79.6968 221.259C79.7392 221.28 79.7765 221.309 79.8059 221.346C79.8353 221.383 79.8561 221.425 79.8668 221.471C79.8774 221.517 79.8777 221.565 79.8675 221.611V221.895C79.8777 221.94 79.8774 221.988 79.8668 222.034C79.8561 222.08 79.8353 222.122 79.8059 222.159C79.7765 222.196 79.7392 222.225 79.6968 222.246C79.6544 222.266 79.608 222.277 79.561 222.277C79.514 222.277 79.4676 222.266 79.4252 222.246C79.3828 222.225 79.3455 222.196 79.3161 222.159C79.2867 222.122 79.2659 222.08 79.2552 222.034C79.2446 221.988 79.2444 221.94 79.2546 221.895V221.611ZM79.2546 223.614C79.2524 223.574 79.2587 223.534 79.2729 223.497C79.2872 223.46 79.3091 223.426 79.3373 223.398C79.3655 223.369 79.3994 223.347 79.4366 223.333C79.4739 223.319 79.5137 223.313 79.5535 223.315C79.594 223.313 79.6345 223.319 79.6725 223.333C79.7106 223.347 79.7453 223.369 79.7747 223.397C79.8041 223.425 79.8274 223.459 79.8434 223.496C79.8593 223.533 79.8675 223.573 79.8675 223.614V229.16C79.8675 229.201 79.8593 229.241 79.8434 229.278C79.8274 229.315 79.8041 229.349 79.7747 229.377C79.7453 229.405 79.7106 229.427 79.6725 229.441C79.6345 229.455 79.594 229.461 79.5535 229.459C79.4742 229.459 79.3982 229.427 79.3421 229.371C79.2861 229.315 79.2546 229.239 79.2546 229.16V223.614Z" fill="black"/>
<path d="M82.7686 223.629C82.7685 223.588 82.7767 223.548 82.7927 223.511C82.8086 223.473 82.832 223.44 82.8613 223.412C82.8907 223.384 82.9255 223.362 82.9635 223.348C83.0015 223.334 83.042 223.327 83.0825 223.33C83.1618 223.33 83.2378 223.361 83.2939 223.417C83.35 223.473 83.3815 223.549 83.3815 223.629V224.974C83.4034 224.923 83.4283 224.873 83.4562 224.824C83.7079 224.387 84.0661 224.021 84.4974 223.76C84.9286 223.499 85.419 223.35 85.9229 223.33C85.9627 223.327 86.0026 223.334 86.0398 223.348C86.0771 223.362 86.1109 223.384 86.1391 223.412C86.1673 223.441 86.1893 223.474 86.2035 223.512C86.2178 223.549 86.224 223.589 86.2219 223.629C86.2219 223.708 86.1904 223.784 86.1343 223.84C86.0782 223.896 86.0022 223.928 85.9229 223.928C85.5674 223.938 85.2199 224.035 84.91 224.209C84.6002 224.384 84.3373 224.631 84.1439 224.929C83.8201 225.386 83.568 225.891 83.3964 226.424C83.3914 226.454 83.3914 226.484 83.3964 226.514V229.22C83.381 229.289 83.3421 229.352 83.2864 229.396C83.2307 229.441 83.1614 229.465 83.09 229.465C83.0186 229.465 82.9493 229.441 82.8935 229.396C82.8378 229.352 82.799 229.289 82.7835 229.22L82.7686 223.629Z" fill="black"/>
<path d="M97.0752 225.826C97.0675 225.321 96.8634 224.839 96.5062 224.482C96.149 224.125 95.6668 223.921 95.1617 223.913C94.6594 223.921 94.1804 224.126 93.8279 224.484C93.4755 224.842 93.278 225.324 93.2781 225.826V229.235C93.2488 229.305 93.196 229.364 93.1286 229.399C93.0797 229.413 93.028 229.413 92.9791 229.399H92.8894V229.295V225.946C92.8894 225.697 92.8403 225.45 92.7449 225.22C92.6495 224.989 92.5096 224.78 92.3333 224.604C92.157 224.427 91.9477 224.287 91.7174 224.192C91.487 224.097 91.2402 224.048 90.9908 224.048C90.7415 224.048 90.4946 224.097 90.2643 224.192C90.0339 224.287 89.8246 224.427 89.6483 224.604C89.472 224.78 89.3322 224.989 89.2368 225.22C89.1414 225.45 89.0923 225.697 89.0923 225.946V229.295C89.0919 229.343 89.0793 229.39 89.0558 229.432C89.0323 229.473 88.9985 229.509 88.9577 229.534H88.8381C88.7794 229.523 88.7247 229.497 88.6799 229.457C88.6352 229.418 88.602 229.367 88.584 229.31V223.689C88.584 223.613 88.6139 223.541 88.6672 223.488C88.7204 223.435 88.7927 223.405 88.868 223.405C88.9066 223.403 88.9451 223.409 88.9813 223.422C89.0175 223.435 89.0506 223.456 89.0786 223.482C89.1066 223.509 89.1289 223.541 89.1441 223.576C89.1593 223.612 89.1671 223.65 89.167 223.689V224.272C89.4002 223.996 89.6912 223.776 90.0194 223.626C90.3476 223.476 90.7048 223.401 91.0656 223.405C91.515 223.404 91.9565 223.524 92.3432 223.753C92.73 223.982 93.0478 224.311 93.2631 224.705C93.4821 224.314 93.8007 223.987 94.1867 223.759C94.5727 223.531 95.0122 223.408 95.4607 223.405C95.7891 223.403 96.1147 223.466 96.4184 223.591C96.7222 223.715 96.9982 223.899 97.2304 224.131C97.4627 224.364 97.6465 224.64 97.7712 224.944C97.896 225.247 97.9592 225.573 97.9572 225.901V229.25C97.9573 229.288 97.9495 229.327 97.9343 229.362C97.9191 229.398 97.8968 229.43 97.8689 229.456C97.8409 229.483 97.8078 229.503 97.7716 229.517C97.7354 229.53 97.6968 229.536 97.6583 229.534C97.5829 229.534 97.5107 229.504 97.4574 229.451C97.4041 229.397 97.3742 229.325 97.3742 229.25L97.0752 225.826Z" fill="black"/>
<path d="M104.759 221.969V229.16C104.759 229.239 104.727 229.315 104.671 229.371C104.615 229.428 104.539 229.459 104.46 229.459C104.381 229.459 104.305 229.428 104.248 229.371C104.192 229.315 104.161 229.239 104.161 229.16V221.102C104.141 221.041 104.14 220.975 104.159 220.914C104.178 220.852 104.215 220.798 104.265 220.759C104.335 220.718 104.417 220.704 104.496 220.717C104.575 220.731 104.647 220.772 104.699 220.833L110.021 228.218V221.072C110.011 221.027 110.011 220.979 110.022 220.933C110.032 220.887 110.053 220.845 110.083 220.808C110.112 220.771 110.149 220.742 110.192 220.721C110.234 220.701 110.28 220.69 110.327 220.69C110.374 220.69 110.421 220.701 110.463 220.721C110.506 220.742 110.543 220.771 110.572 220.808C110.602 220.845 110.623 220.887 110.633 220.933C110.644 220.979 110.644 221.027 110.634 221.072V229.16C110.634 229.201 110.626 229.241 110.61 229.278C110.594 229.315 110.571 229.349 110.541 229.377C110.512 229.405 110.477 229.427 110.439 229.441C110.401 229.455 110.36 229.461 110.32 229.459C110.273 229.46 110.227 229.45 110.185 229.429C110.144 229.408 110.108 229.378 110.081 229.339L104.759 221.969Z" fill="black"/>
<path d="M113.22 226.394C113.19 225.601 113.477 224.829 114.016 224.247C114.556 223.665 115.305 223.322 116.098 223.292C116.891 223.262 117.663 223.549 118.245 224.089C118.826 224.628 119.17 225.377 119.2 226.17C119.196 226.247 119.163 226.319 119.107 226.372C119.051 226.425 118.977 226.454 118.901 226.454H113.848C113.863 227.081 114.121 227.677 114.567 228.118C115.013 228.558 115.613 228.808 116.24 228.816C116.637 228.815 117.028 228.712 117.374 228.515C117.72 228.319 118.009 228.036 118.213 227.695C118.253 227.628 118.318 227.58 118.394 227.56C118.469 227.541 118.549 227.552 118.617 227.59C118.685 227.636 118.734 227.706 118.754 227.786C118.773 227.867 118.761 227.951 118.721 228.024C118.456 228.443 118.09 228.79 117.656 229.033C117.223 229.276 116.736 229.407 116.24 229.414C115.842 229.418 115.447 229.343 115.079 229.192C114.711 229.042 114.377 228.82 114.095 228.538C113.814 228.257 113.592 227.923 113.442 227.554C113.291 227.186 113.216 226.792 113.22 226.394ZM113.863 225.901H118.512C118.424 225.351 118.145 224.85 117.724 224.487C117.302 224.123 116.766 223.92 116.21 223.913C115.647 223.915 115.103 224.116 114.674 224.479C114.245 224.843 113.958 225.346 113.863 225.901Z" fill="black"/>
<path d="M123.042 229.413C122.986 229.378 122.944 229.326 122.922 229.264L120.62 223.778C120.603 223.742 120.593 223.704 120.591 223.665C120.589 223.626 120.596 223.587 120.61 223.551C120.624 223.514 120.645 223.481 120.673 223.453C120.7 223.425 120.733 223.403 120.769 223.389C120.843 223.359 120.925 223.36 120.998 223.391C121.07 223.422 121.128 223.48 121.158 223.553L123.191 228.397L124.611 225.018C124.638 224.961 124.68 224.913 124.733 224.879C124.786 224.845 124.847 224.826 124.91 224.826C124.973 224.826 125.035 224.845 125.088 224.879C125.141 224.913 125.183 224.961 125.209 225.018L126.614 228.397L128.648 223.553C128.68 223.483 128.738 223.426 128.81 223.396C128.882 223.366 128.963 223.363 129.036 223.389C129.074 223.402 129.108 223.423 129.137 223.45C129.166 223.477 129.19 223.51 129.205 223.547C129.221 223.583 129.228 223.623 129.227 223.663C129.227 223.702 129.218 223.742 129.201 223.778L126.913 229.249C126.887 229.308 126.846 229.36 126.794 229.399C126.745 229.411 126.693 229.411 126.644 229.399C126.591 229.391 126.54 229.369 126.498 229.335C126.456 229.3 126.424 229.255 126.405 229.204L124.985 225.811L123.49 229.204C123.469 229.26 123.433 229.308 123.385 229.342C123.337 229.377 123.28 229.396 123.221 229.399H123.116L123.042 229.413Z" fill="black"/>
<path d="M135.704 220.983C135.704 220.903 135.736 220.827 135.792 220.771C135.848 220.715 135.924 220.684 136.003 220.684H138.485C139.147 220.684 139.782 220.947 140.25 221.415C140.718 221.883 140.981 222.518 140.981 223.18C140.981 223.842 140.718 224.477 140.25 224.945C139.782 225.414 139.147 225.677 138.485 225.677H136.317V229.13C136.317 229.171 136.309 229.211 136.293 229.248C136.277 229.285 136.254 229.319 136.224 229.347C136.195 229.375 136.16 229.397 136.122 229.411C136.084 229.425 136.044 229.431 136.003 229.429C135.924 229.429 135.848 229.397 135.792 229.341C135.736 229.285 135.704 229.209 135.704 229.13V220.983ZM138.485 225.094C138.988 225.086 139.469 224.881 139.824 224.524C140.179 224.166 140.379 223.684 140.383 223.18C140.379 222.679 140.178 222.2 139.822 221.847C139.466 221.494 138.986 221.297 138.485 221.297H136.317V225.094H138.485Z" fill="black"/>
<path d="M148.037 223.614V229.16C148.022 229.23 147.983 229.292 147.927 229.337C147.871 229.382 147.802 229.406 147.731 229.406C147.659 229.406 147.59 229.382 147.534 229.337C147.478 229.292 147.44 229.23 147.424 229.16V228.248C147.163 228.617 146.818 228.919 146.418 229.129C146.018 229.34 145.574 229.453 145.122 229.459C144.344 229.405 143.616 229.057 143.084 228.487C142.553 227.917 142.257 227.167 142.257 226.387C142.257 225.607 142.553 224.857 143.084 224.287C143.616 223.716 144.344 223.369 145.122 223.315C145.573 223.318 146.017 223.428 146.417 223.636C146.817 223.844 147.162 224.144 147.424 224.511V223.614C147.424 223.573 147.432 223.533 147.448 223.496C147.464 223.459 147.488 223.425 147.517 223.397C147.546 223.369 147.581 223.347 147.619 223.333C147.657 223.319 147.698 223.313 147.738 223.315C147.817 223.315 147.893 223.346 147.95 223.402C148.006 223.458 148.037 223.535 148.037 223.614ZM147.424 226.379C147.389 225.933 147.225 225.507 146.952 225.153C146.679 224.799 146.308 224.532 145.886 224.385C145.463 224.238 145.007 224.217 144.573 224.325C144.139 224.433 143.746 224.665 143.441 224.993C143.137 225.321 142.935 225.731 142.86 226.172C142.784 226.613 142.839 227.066 143.018 227.476C143.196 227.887 143.49 228.236 143.864 228.482C144.237 228.728 144.675 228.86 145.122 228.861C145.436 228.849 145.745 228.776 146.031 228.645C146.317 228.514 146.574 228.328 146.788 228.098C147.001 227.867 147.168 227.597 147.277 227.302C147.386 227.007 147.436 226.694 147.424 226.379Z" fill="black"/>
<path d="M150.19 228.173C150.218 228.143 150.251 228.12 150.288 228.104C150.326 228.088 150.366 228.08 150.406 228.08C150.447 228.08 150.487 228.088 150.524 228.104C150.562 228.12 150.595 228.143 150.623 228.173C151.154 228.604 151.809 228.855 152.492 228.89C152.915 228.905 153.328 228.767 153.658 228.502C153.794 228.429 153.908 228.321 153.989 228.19C154.071 228.059 154.116 227.908 154.121 227.754C154.117 227.604 154.074 227.456 153.999 227.326C153.923 227.195 153.816 227.086 153.688 227.007C153.298 226.753 152.851 226.599 152.387 226.558C151.895 226.498 151.422 226.335 150.997 226.08C150.799 225.971 150.633 225.811 150.518 225.616C150.402 225.422 150.34 225.2 150.339 224.974C150.344 224.734 150.406 224.499 150.52 224.288C150.635 224.077 150.798 223.897 150.997 223.763C151.446 223.487 151.965 223.347 152.492 223.359C153.152 223.39 153.788 223.619 154.316 224.017C154.382 224.065 154.428 224.136 154.444 224.216C154.461 224.297 154.447 224.38 154.405 224.45C154.358 224.513 154.289 224.556 154.213 224.573C154.136 224.589 154.056 224.578 153.987 224.54C153.569 224.176 153.045 223.956 152.492 223.912C152.074 223.896 151.662 224.022 151.326 224.271C151.211 224.35 151.116 224.454 151.048 224.576C150.981 224.698 150.943 224.834 150.937 224.974C150.937 225.097 150.969 225.218 151.029 225.325C151.089 225.432 151.176 225.522 151.281 225.587C151.662 225.823 152.091 225.972 152.537 226.02C153.062 226.086 153.57 226.254 154.032 226.513C154.238 226.65 154.408 226.835 154.525 227.053C154.643 227.271 154.704 227.514 154.704 227.762C154.704 228.009 154.643 228.253 154.525 228.471C154.408 228.688 154.238 228.874 154.032 229.01C153.599 229.329 153.075 229.502 152.537 229.503C151.706 229.473 150.911 229.162 150.279 228.621C150.236 228.605 150.198 228.579 150.169 228.544C150.139 228.509 150.119 228.467 150.11 228.422C150.101 228.377 150.103 228.331 150.117 228.287C150.131 228.243 150.156 228.204 150.19 228.173Z" fill="black"/>
<path d="M156.274 228.173C156.301 228.144 156.333 228.121 156.369 228.105C156.405 228.089 156.444 228.081 156.483 228.081C156.523 228.081 156.562 228.089 156.598 228.105C156.634 228.121 156.666 228.144 156.693 228.173C157.231 228.602 157.889 228.853 158.576 228.891C158.999 228.905 159.413 228.767 159.742 228.502C159.876 228.427 159.989 228.319 160.07 228.188C160.151 228.057 160.198 227.908 160.206 227.755C160.197 227.605 160.154 227.459 160.078 227.329C160.003 227.199 159.898 227.089 159.772 227.007C159.377 226.752 158.926 226.597 158.457 226.559C157.964 226.501 157.49 226.338 157.067 226.08C156.867 225.972 156.699 225.812 156.581 225.618C156.463 225.424 156.398 225.201 156.394 224.974C156.4 224.733 156.464 224.497 156.581 224.286C156.699 224.075 156.865 223.896 157.067 223.763C157.515 223.485 158.034 223.345 158.561 223.359C159.226 223.39 159.867 223.619 160.4 224.017C160.466 224.065 160.512 224.136 160.529 224.217C160.546 224.297 160.532 224.38 160.49 224.451C160.442 224.513 160.374 224.557 160.297 224.573C160.22 224.589 160.14 224.578 160.071 224.54C159.653 224.176 159.129 223.956 158.576 223.913C158.159 223.901 157.749 224.027 157.41 224.271C157.298 224.353 157.205 224.458 157.137 224.579C157.07 224.701 157.031 224.835 157.022 224.974C157.025 225.098 157.059 225.22 157.122 225.327C157.185 225.434 157.274 225.524 157.38 225.587C157.761 225.824 158.19 225.972 158.636 226.02C159.163 226.082 159.671 226.25 160.131 226.514C160.338 226.65 160.507 226.835 160.625 227.053C160.742 227.271 160.803 227.515 160.803 227.762C160.803 228.01 160.742 228.253 160.625 228.471C160.507 228.689 160.338 228.874 160.131 229.01C159.7 229.333 159.175 229.506 158.636 229.504C157.802 229.47 157.003 229.159 156.364 228.622C156.324 228.603 156.288 228.575 156.261 228.54C156.233 228.505 156.214 228.464 156.206 228.42C156.197 228.376 156.199 228.331 156.211 228.288C156.222 228.246 156.244 228.206 156.274 228.173Z" fill="black"/>
<path d="M164.736 229.415C164.68 229.379 164.638 229.327 164.616 229.265L162.299 223.779C162.281 223.742 162.271 223.702 162.27 223.661C162.268 223.62 162.275 223.58 162.29 223.542C162.304 223.504 162.327 223.469 162.355 223.44C162.384 223.411 162.418 223.388 162.456 223.372C162.494 223.357 162.535 223.35 162.575 223.351C162.616 223.352 162.656 223.361 162.693 223.378C162.73 223.395 162.764 223.419 162.791 223.45C162.818 223.48 162.839 223.516 162.852 223.554L164.885 228.398L166.305 225.019C166.33 224.964 166.37 224.916 166.42 224.882C166.47 224.848 166.529 224.828 166.589 224.825C166.655 224.824 166.719 224.842 166.775 224.877C166.83 224.911 166.875 224.961 166.903 225.019L168.308 228.398L170.342 223.554C170.374 223.484 170.432 223.428 170.504 223.397C170.576 223.367 170.657 223.364 170.73 223.39C170.804 223.42 170.862 223.478 170.893 223.55C170.924 223.623 170.924 223.705 170.895 223.779L168.607 229.25C168.576 229.306 168.536 229.357 168.488 229.4C168.439 229.412 168.387 229.412 168.338 229.4C168.285 229.392 168.234 229.37 168.192 229.336C168.15 229.301 168.118 229.256 168.099 229.205L166.604 225.812L165.199 229.205C165.178 229.261 165.142 229.309 165.094 229.343C165.046 229.378 164.989 229.397 164.93 229.4H164.825L164.736 229.415Z" fill="black"/>
<path d="M175.798 223.315C176.414 223.282 177.025 223.435 177.553 223.753C178.081 224.072 178.501 224.541 178.759 225.101C179.017 225.661 179.101 226.285 179 226.894C178.9 227.502 178.619 228.066 178.194 228.513C177.769 228.959 177.22 229.268 176.617 229.399C176.015 229.53 175.387 229.478 174.815 229.248C174.242 229.018 173.753 228.622 173.408 228.11C173.064 227.599 172.881 226.996 172.883 226.38C172.873 225.987 172.94 225.596 173.082 225.23C173.223 224.863 173.435 224.528 173.705 224.243C173.976 223.959 174.3 223.73 174.659 223.571C175.018 223.412 175.405 223.325 175.798 223.315ZM175.798 228.861C176.294 228.894 176.789 228.777 177.219 228.525C177.648 228.273 177.991 227.898 178.204 227.449C178.418 226.999 178.491 226.496 178.415 226.004C178.338 225.512 178.116 225.055 177.776 224.691C177.437 224.328 176.996 224.074 176.51 223.965C176.025 223.855 175.518 223.893 175.055 224.075C174.592 224.257 174.194 224.574 173.913 224.985C173.633 225.396 173.482 225.882 173.481 226.38C173.461 227.015 173.693 227.634 174.127 228.099C174.561 228.564 175.162 228.838 175.798 228.861Z" fill="black"/>
<path d="M180.762 223.629C180.762 223.588 180.77 223.548 180.786 223.511C180.802 223.473 180.825 223.44 180.855 223.412C180.884 223.384 180.919 223.362 180.957 223.348C180.995 223.334 181.035 223.327 181.076 223.33C181.155 223.33 181.231 223.361 181.287 223.417C181.343 223.473 181.375 223.549 181.375 223.629V224.974C181.396 224.92 181.427 224.869 181.464 224.824C181.715 224.39 182.071 224.025 182.499 223.763C182.927 223.502 183.415 223.353 183.916 223.33C183.956 223.327 183.996 223.334 184.033 223.348C184.07 223.362 184.104 223.384 184.132 223.412C184.16 223.441 184.182 223.474 184.197 223.512C184.211 223.549 184.217 223.589 184.215 223.629C184.215 223.708 184.184 223.784 184.127 223.84C184.071 223.896 183.995 223.928 183.916 223.928C183.561 223.938 183.213 224.035 182.903 224.209C182.593 224.384 182.33 224.631 182.137 224.929C181.813 225.386 181.561 225.891 181.39 226.424C181.385 226.454 181.385 226.484 181.39 226.514V229.22C181.374 229.289 181.335 229.352 181.28 229.396C181.224 229.441 181.155 229.465 181.083 229.465C181.012 229.465 180.942 229.441 180.887 229.396C180.831 229.352 180.792 229.289 180.777 229.22L180.762 223.629Z" fill="black"/>
<path d="M190.882 228.262C190.607 228.63 190.251 228.929 189.841 229.136C189.431 229.343 188.98 229.454 188.52 229.458C187.743 229.404 187.014 229.057 186.483 228.487C185.951 227.916 185.655 227.166 185.655 226.386C185.655 225.607 185.951 224.856 186.483 224.286C187.014 223.716 187.743 223.368 188.52 223.314C188.98 223.319 189.431 223.429 189.841 223.636C190.251 223.844 190.607 224.143 190.882 224.51V220.982C190.882 220.941 190.891 220.901 190.907 220.864C190.922 220.827 190.946 220.793 190.975 220.765C191.005 220.737 191.039 220.715 191.077 220.701C191.115 220.687 191.156 220.681 191.196 220.683C191.276 220.683 191.352 220.714 191.408 220.771C191.464 220.827 191.495 220.903 191.495 220.982V229.159C191.495 229.239 191.464 229.315 191.408 229.371C191.352 229.427 191.276 229.458 191.196 229.458C191.156 229.46 191.115 229.454 191.077 229.44C191.039 229.426 191.005 229.404 190.975 229.376C190.946 229.348 190.922 229.315 190.907 229.277C190.891 229.24 190.882 229.2 190.882 229.159V228.262ZM190.882 226.498V226.289C190.855 225.648 190.578 225.044 190.11 224.605C189.643 224.167 189.022 223.929 188.381 223.943C187.74 223.956 187.129 224.22 186.681 224.679C186.232 225.137 185.981 225.752 185.981 226.394C185.981 227.035 186.232 227.65 186.681 228.109C187.129 228.567 187.74 228.831 188.381 228.845C189.022 228.858 189.643 228.621 190.11 228.182C190.578 227.743 190.855 227.139 190.882 226.498Z" fill="black"/>
<path d="M268.664 235.798H48.9385V259.836H268.664V235.798Z" fill="#EBEBEB"/>
<path d="M399.949 148.627V188.781H388.587V148.627C388.587 133.349 376.987 120.926 362.725 120.926C348.463 120.926 336.848 133.349 336.848 148.627V188.781H325.501V148.627C325.501 126.757 342.199 108.967 362.725 108.967C383.25 108.967 399.949 126.757 399.949 148.627Z" fill="#DBDBDB"/>
<path d="M325.501 159.062L336.848 159.526V188.782H325.501V159.062Z" fill="#C7C7C7"/>
<path d="M399.934 162.097V188.782H388.588V161.634L399.934 162.097Z" fill="#C7C7C7"/>
<path d="M414.494 173.922H310.955V259.851H414.494V173.922Z" fill="#2A9D8F"/>
<path opacity="0.1" d="M362.725 173.922H310.955V259.851H362.725V173.922Z" fill="black"/>
<path d="M367.584 216.318L371.919 236.888H353.502L357.837 216.318C356.138 215.261 354.83 213.679 354.11 211.811C353.391 209.944 353.299 207.893 353.849 205.969C354.398 204.045 355.56 202.353 357.158 201.148C358.755 199.943 360.702 199.291 362.703 199.291C364.704 199.291 366.651 199.943 368.248 201.148C369.846 202.353 371.007 204.045 371.557 205.969C372.107 207.893 372.015 209.944 371.296 211.811C370.576 213.679 369.268 215.261 367.569 216.318H367.584Z" fill="#263238"/>
<path d="M453.916 179.678L449.281 178.93C450.553 170.861 448.967 162.602 444.797 155.578C440.627 148.554 434.136 143.206 426.443 140.459C418.751 137.712 410.34 137.737 402.664 140.53C394.988 143.324 388.529 148.71 384.401 155.759L380.245 153.576C384.893 145.544 392.205 139.391 400.913 136.183C409.622 132.976 419.178 132.917 427.926 136.017C436.673 139.116 444.061 145.178 448.807 153.152C453.554 161.127 455.361 170.511 453.916 179.678Z" fill="#37474F"/>
<path d="M448.041 179.812L448.221 178.751C449.443 170.932 447.898 162.932 443.853 156.131C439.807 149.329 433.515 144.153 426.06 141.495C418.606 138.838 410.459 138.865 403.022 141.573C395.586 144.28 389.329 149.498 385.329 156.327L384.805 157.209L378.751 154.025L379.319 153.053C384.094 144.789 391.614 138.459 400.571 135.163C409.528 131.867 419.357 131.813 428.35 135.012C437.343 138.21 444.931 144.458 449.795 152.67C454.66 160.882 456.494 170.538 454.978 179.962L454.798 181.023L448.041 179.812ZM422.269 138.074C431.124 139.985 438.938 145.153 444.163 152.554C449.388 159.955 451.642 169.049 450.478 178.033L452.99 178.437C454.153 169.66 452.268 160.75 447.65 153.195C443.032 145.641 435.961 139.901 427.62 136.934C419.278 133.967 410.17 133.954 401.819 136.896C393.469 139.838 386.381 145.557 381.741 153.098L383.983 154.279C387.915 147.959 393.704 143.01 400.558 140.109C407.412 137.208 414.995 136.497 422.269 138.074Z" fill="#37474F"/>
<path d="M443.855 175.522L446.008 173.833L451.091 180.65L457.504 175.193L459.074 177.331L450.493 184.612L443.855 175.522Z" fill="#37474F"/>
<path d="M450.313 186.18L442.375 175.327L446.202 172.337L451.27 179.109L457.668 173.667L460.538 177.524L450.313 186.18ZM445.335 175.715L450.687 183.026L457.623 177.136L457.324 176.747L450.911 182.189L445.798 175.342L445.335 175.715Z" fill="#37474F"/>
<path d="M375.059 168.106L379.693 168.854C378.406 176.927 379.981 185.197 384.146 192.232C388.311 199.267 394.804 204.625 402.501 207.379C410.199 210.134 418.617 210.111 426.299 207.316C433.982 204.52 440.446 199.127 444.573 192.07L448.729 194.253C444.082 202.294 436.765 208.453 428.05 211.663C419.335 214.872 409.771 214.929 401.019 211.822C392.266 208.716 384.878 202.643 380.136 194.657C375.394 186.672 373.597 177.278 375.059 168.106Z" fill="#37474F"/>
<path d="M405.705 214.27C395.494 212.071 386.515 206.039 380.619 197.417C374.723 188.795 372.358 178.24 374.012 167.927L374.176 166.865L380.934 167.942L380.754 169.003C379.501 176.831 381.024 184.851 385.06 191.674C389.096 198.498 395.391 203.695 402.854 206.367C410.318 209.039 418.482 209.017 425.931 206.305C433.38 203.593 439.647 198.362 443.646 191.517L444.169 190.62L450.224 193.804L449.656 194.776C445.349 202.271 438.768 208.2 430.866 211.705C422.964 215.21 414.151 216.108 405.705 214.27ZM375.97 169.422C374.858 178.184 376.778 187.063 381.412 194.583C386.045 202.102 393.114 207.809 401.441 210.754C409.768 213.699 418.852 213.705 427.184 210.771C435.515 207.837 442.59 202.14 447.234 194.626L444.977 193.445C440.613 200.441 433.988 205.735 426.201 208.447C418.415 211.158 409.935 211.125 402.169 208.353C394.404 205.581 387.82 200.236 383.512 193.206C379.203 186.176 377.428 177.883 378.482 169.706L375.97 169.422Z" fill="#37474F"/>
<path d="M385.119 172.247L382.966 173.937L377.883 167.12L371.485 172.576L369.9 170.439L378.481 163.158L385.119 172.247Z" fill="#37474F"/>
<path d="M371.306 174.131L368.45 170.274L378.676 161.589L386.614 172.442L382.787 175.432L377.734 168.66L371.306 174.131ZM371.306 170.618L371.604 171.007L378.003 165.565L383.116 172.412L383.579 172.038L378.287 164.728L371.306 170.618Z" fill="#37474F"/>
<path d="M65.6216 193.819C64.2329 196.603 61.9767 198.859 59.1934 200.248C59.8451 198.846 60.7526 197.579 61.8693 196.51C62.9455 195.392 64.2172 194.48 65.6216 193.819Z" fill="#263238"/>
<path d="M59.1934 193.819C60.5911 194.484 61.8572 195.395 62.9307 196.51C64.0522 197.578 64.9648 198.845 65.6216 200.248C62.8298 198.871 60.5702 196.611 59.1934 193.819Z" fill="#263238"/>
<path d="M66.9521 197.034C65.5121 197.543 63.9943 197.796 62.4672 197.782C60.9394 197.805 59.42 197.552 57.9824 197.034C59.4182 196.51 60.9389 196.256 62.4672 196.287C63.9949 196.265 65.5139 196.519 66.9521 197.034Z" fill="#263238"/>
<path d="M62.4068 192.489C63.4036 195.437 63.4036 198.631 62.4068 201.578C61.41 198.631 61.41 195.437 62.4068 192.489Z" fill="#263238"/>
<path d="M81.2876 193.819C80.6269 195.219 79.7148 196.486 78.5967 197.557C77.5291 198.678 76.2616 199.591 74.8594 200.248C76.248 197.464 78.5042 195.208 81.2876 193.819Z" fill="#263238"/>
<path d="M74.8594 193.819C77.6427 195.208 79.899 197.464 81.2876 200.248C79.8854 199.591 78.6179 198.678 77.5503 197.557C76.4321 196.486 75.5201 195.219 74.8594 193.819Z" fill="#263238"/>
<path d="M82.619 197.034C81.1794 197.544 79.6614 197.797 78.1342 197.781C76.6065 197.804 75.0873 197.55 73.6494 197.034C75.0855 196.51 76.606 196.257 78.1342 196.286C79.6619 196.264 81.1811 196.518 82.619 197.034Z" fill="#263238"/>
<path d="M78.0748 192.489C78.5844 193.929 78.8374 195.447 78.8222 196.974C78.8434 198.502 78.5903 200.021 78.0748 201.459C77.5525 200.022 77.2991 198.502 77.3273 196.974C77.3121 195.447 77.5651 193.929 78.0748 192.489Z" fill="#263238"/>
<path d="M96.9546 193.819C96.2938 195.215 95.3874 196.481 94.2787 197.557C93.2025 198.675 91.9308 199.587 90.5264 200.248C91.1832 198.845 92.0957 197.578 93.2173 196.51C94.2907 195.395 95.5568 194.484 96.9546 193.819Z" fill="#263238"/>
<path d="M90.5264 193.819C91.9308 194.48 93.2025 195.392 94.2787 196.51C95.3954 197.579 96.3029 198.846 96.9546 200.248C94.1712 198.859 91.915 196.603 90.5264 193.819Z" fill="#263238"/>
<path d="M98.286 197.034C96.8466 197.544 95.3284 197.797 93.8012 197.781C92.2736 197.802 90.7546 197.549 89.3164 197.034C90.7528 196.511 92.2731 196.258 93.8012 196.286C95.329 196.263 96.8484 196.516 98.286 197.034Z" fill="#263238"/>
<path d="M93.7408 192.489C94.7376 195.437 94.7376 198.631 93.7408 201.578C92.744 198.631 92.744 195.437 93.7408 192.489Z" fill="#263238"/>
<path d="M112.637 193.819C111.249 196.603 108.992 198.859 106.209 200.248C106.861 198.846 107.768 197.579 108.885 196.51C109.961 195.392 111.233 194.48 112.637 193.819Z" fill="#263238"/>
<path d="M106.209 193.819C107.607 194.484 108.873 195.395 109.946 196.51C111.068 197.578 111.98 198.845 112.637 200.248C111.233 199.587 109.961 198.675 108.885 197.557C107.776 196.481 106.87 195.215 106.209 193.819Z" fill="#263238"/>
<path d="M113.968 197.034C112.528 197.543 111.01 197.796 109.483 197.782C107.955 197.805 106.436 197.552 104.998 197.034C106.434 196.51 107.955 196.256 109.483 196.287C111.01 196.265 112.53 196.519 113.968 197.034Z" fill="#263238"/>
<path d="M109.422 192.489C110.419 195.437 110.419 198.631 109.422 201.578C108.426 198.631 108.426 195.437 109.422 192.489Z" fill="#263238"/>
<path d="M128.304 193.819C127.644 195.219 126.731 196.486 125.613 197.557C124.546 198.678 123.278 199.591 121.876 200.248C122.533 198.845 123.445 197.578 124.567 196.51C125.637 195.392 126.904 194.48 128.304 193.819Z" fill="#263238"/>
<path d="M121.876 193.819C124.659 195.208 126.916 197.464 128.304 200.248C126.902 199.591 125.635 198.678 124.567 197.557C123.449 196.486 122.537 195.219 121.876 193.819Z" fill="#263238"/>
<path d="M129.635 197.034C128.195 197.544 126.677 197.797 125.15 197.781C123.622 197.804 122.103 197.55 120.665 197.034C122.101 196.51 123.622 196.257 125.15 196.286C126.678 196.264 128.197 196.518 129.635 197.034Z" fill="#263238"/>
<path d="M125.09 192.489C125.6 193.929 125.853 195.447 125.838 196.974C125.866 198.502 125.613 200.022 125.09 201.459C124.575 200.021 124.322 198.502 124.343 196.974C124.328 195.447 124.581 193.929 125.09 192.489Z" fill="#263238"/>
<path d="M143.971 193.819C143.316 195.219 142.409 196.485 141.295 197.557C140.222 198.672 138.955 199.583 137.558 200.248C138.204 198.843 139.112 197.575 140.234 196.51C141.307 195.395 142.573 194.484 143.971 193.819Z" fill="#263238"/>
<path d="M137.558 193.819C138.955 194.484 140.222 195.395 141.295 196.51C142.412 197.579 143.319 198.846 143.971 200.248C142.573 199.583 141.307 198.672 140.234 197.557C139.12 196.485 138.213 195.219 137.558 193.819Z" fill="#263238"/>
<path d="M145.301 197.034C143.861 197.545 142.343 197.798 140.816 197.782C139.288 197.806 137.768 197.553 136.331 197.034C137.767 196.509 139.287 196.255 140.816 196.287C142.344 196.263 143.863 196.517 145.301 197.034Z" fill="#263238"/>
<path d="M140.757 192.489C141.754 195.437 141.754 198.631 140.757 201.578C139.761 198.631 139.761 195.437 140.757 192.489Z" fill="#263238"/>
<path d="M159.653 193.819C158.264 196.603 156.008 198.859 153.225 200.248C153.876 198.846 154.784 197.579 155.901 196.51C156.977 195.392 158.248 194.48 159.653 193.819Z" fill="#263238"/>
<path d="M153.18 193.819C154.577 194.484 155.844 195.395 156.917 196.51C158.039 197.578 158.951 198.845 159.608 200.248C158.203 199.587 156.932 198.675 155.856 197.557C154.747 196.481 153.84 195.215 153.18 193.819Z" fill="#263238"/>
<path d="M160.983 197.034C159.543 197.543 158.026 197.796 156.498 197.782C154.971 197.805 153.451 197.552 152.014 197.034C153.449 196.51 154.97 196.256 156.498 196.287C158.026 196.265 159.545 196.519 160.983 197.034Z" fill="#263238"/>
<path d="M156.439 192.489C157.436 195.437 157.436 198.631 156.439 201.578C155.442 198.631 155.442 195.437 156.439 192.489Z" fill="#263238"/>
<path d="M65.6216 244.618C64.9519 246.013 64.0409 247.278 62.9307 248.356C61.8572 249.47 60.5911 250.382 59.1934 251.046C59.8486 249.643 60.7555 248.371 61.8693 247.294C62.9499 246.185 64.2209 245.279 65.6216 244.618Z" fill="#263238"/>
<path d="M59.1934 244.618C60.5873 245.283 61.8526 246.189 62.9307 247.294C64.049 248.37 64.961 249.642 65.6216 251.046C62.8298 249.67 60.5702 247.41 59.1934 244.618Z" fill="#263238"/>
<path d="M66.9525 247.832C64.0048 248.828 60.811 248.828 57.8633 247.832C60.811 246.835 64.0048 246.835 66.9525 247.832Z" fill="#263238"/>
<path d="M62.4068 243.287C63.4036 246.235 63.4036 249.429 62.4068 252.376C61.41 249.429 61.41 246.235 62.4068 243.287Z" fill="#263238"/>
<path d="M81.2876 244.618C80.6232 246.016 79.7116 247.282 78.5967 248.356C77.5291 249.477 76.2616 250.39 74.8594 251.046C76.2362 248.255 78.4958 245.995 81.2876 244.618Z" fill="#263238"/>
<path d="M74.8594 244.618C77.6512 245.995 79.9107 248.255 81.2876 251.046C79.8854 250.39 78.6179 249.477 77.5503 248.356C76.4354 247.282 75.5238 246.016 74.8594 244.618Z" fill="#263238"/>
<path d="M82.6185 247.832C79.6708 248.828 76.477 248.828 73.5293 247.832C76.477 246.835 79.6708 246.835 82.6185 247.832Z" fill="#263238"/>
<path d="M78.0748 243.287C78.5853 244.727 78.8384 246.245 78.8222 247.772C78.8434 249.3 78.5903 250.819 78.0748 252.257C77.5525 250.82 77.2991 249.3 77.3273 247.772C77.3112 246.245 77.5642 244.727 78.0748 243.287Z" fill="#263238"/>
<path d="M96.9546 244.618C96.2902 246.012 95.3843 247.277 94.2787 248.356C93.2025 249.474 91.9308 250.386 90.5264 251.046C91.1869 249.642 92.0989 248.37 93.2173 247.294C94.2953 246.189 95.5606 245.283 96.9546 244.618Z" fill="#263238"/>
<path d="M90.5264 244.618C91.9271 245.279 93.198 246.185 94.2787 247.294C95.3924 248.371 96.2994 249.643 96.9546 251.046C95.5568 250.382 94.2907 249.47 93.2173 248.356C92.107 247.278 91.1961 246.013 90.5264 244.618Z" fill="#263238"/>
<path d="M98.2855 247.832C95.3378 248.828 92.144 248.828 89.1963 247.832C92.144 246.835 95.3378 246.835 98.2855 247.832Z" fill="#263238"/>
<path d="M93.7408 243.287C94.7376 246.235 94.7376 249.429 93.7408 252.376C92.744 249.429 92.744 246.235 93.7408 243.287Z" fill="#263238"/>
<path d="M112.637 244.618C111.968 246.013 111.057 247.278 109.946 248.356C108.873 249.47 107.607 250.382 106.209 251.046C106.864 249.643 107.771 248.371 108.885 247.294C109.966 246.185 111.236 245.279 112.637 244.618Z" fill="#263238"/>
<path d="M106.209 244.618C107.603 245.283 108.868 246.189 109.946 247.294C111.065 248.37 111.977 249.642 112.637 251.046C111.233 250.386 109.961 249.474 108.885 248.356C107.779 247.277 106.873 246.012 106.209 244.618Z" fill="#263238"/>
<path d="M113.967 247.832C111.019 248.828 107.826 248.828 104.878 247.832C107.826 246.835 111.019 246.835 113.967 247.832Z" fill="#263238"/>
<path d="M109.422 243.287C110.419 246.235 110.419 249.429 109.422 252.376C108.426 249.429 108.426 246.235 109.422 243.287Z" fill="#263238"/>
<path d="M114.461 240.059H113.475V255.606H114.461V240.059Z" fill="#263238"/>
<path d="M134.553 280.003H49.3564V304.595H134.553V280.003Z" fill="#2A9D8F"/>
<path d="M58.5049 293.084C58.5245 291.856 59.0261 290.684 59.9015 289.823C60.7769 288.962 61.9559 288.479 63.184 288.479C64.2658 288.462 65.3208 288.815 66.1739 289.481C66.3217 289.601 66.418 289.773 66.443 289.962C66.468 290.151 66.4199 290.343 66.3085 290.497C66.1902 290.647 66.019 290.747 65.8299 290.774C65.6409 290.802 65.4483 290.757 65.2919 290.647C64.7077 290.178 63.9776 289.93 63.2289 289.944C62.3732 289.943 61.5494 290.269 60.9267 290.856C60.3375 291.448 60.0046 292.248 59.9998 293.084C59.9993 293.495 60.081 293.903 60.2401 294.283C60.3993 294.663 60.6327 295.007 60.9267 295.296C61.5479 295.887 62.3714 296.219 63.2289 296.223C63.9772 296.235 64.7064 295.986 65.2919 295.52C65.4473 295.418 65.6359 295.378 65.8194 295.409C66.0029 295.441 66.1676 295.541 66.2799 295.69C66.3922 295.838 66.4438 296.024 66.4241 296.209C66.4044 296.394 66.315 296.565 66.1739 296.686C65.3194 297.347 64.2642 297.696 63.184 297.673C61.9561 297.681 60.7749 297.203 59.8982 296.343C59.0215 295.483 58.5207 294.311 58.5049 293.084Z" fill="white"/>
<path d="M75.5329 289.854C76.3593 290.726 76.82 291.882 76.82 293.083C76.82 294.284 76.3593 295.44 75.5329 296.312C75.1515 296.728 74.6901 297.063 74.1764 297.297C73.6627 297.53 73.1072 297.658 72.543 297.672C71.9552 297.668 71.3744 297.545 70.835 297.311C70.2957 297.078 69.8089 296.738 69.4037 296.312C68.5969 295.43 68.1494 294.278 68.1494 293.083C68.1494 291.888 68.5969 290.736 69.4037 289.854C69.8038 289.42 70.2892 289.075 70.8295 288.838C71.3697 288.601 71.9532 288.479 72.543 288.479C73.1092 288.489 73.6671 288.617 74.1816 288.854C74.6961 289.091 75.1561 289.431 75.5329 289.854ZM75.3684 293.083C75.367 292.254 75.058 291.455 74.5014 290.841C74.2441 290.561 73.9323 290.337 73.5852 290.183C73.2381 290.029 72.863 289.947 72.4832 289.944C72.0936 289.941 71.7077 290.019 71.3499 290.174C70.9922 290.328 70.6705 290.555 70.4053 290.841C69.8423 291.451 69.5324 292.253 69.5382 293.083C69.5261 293.906 69.8375 294.7 70.4053 295.295C70.6579 295.595 70.9709 295.838 71.3239 296.008C71.6768 296.178 72.0617 296.271 72.4533 296.282C72.8357 296.276 73.2126 296.191 73.5601 296.031C73.9076 295.872 74.218 295.642 74.4715 295.355C74.7754 295.059 75.0177 294.706 75.1845 294.316C75.3512 293.926 75.4392 293.507 75.4432 293.083H75.3684Z" fill="white"/>
<path d="M80.4066 296.97C80.4212 297.07 80.4142 297.172 80.386 297.269C80.3578 297.366 80.3091 297.456 80.2432 297.532C80.1772 297.608 80.0956 297.67 80.0038 297.712C79.912 297.753 79.8123 297.775 79.7114 297.775C79.6105 297.775 79.5108 297.753 79.419 297.712C79.3273 297.67 79.2456 297.608 79.1797 297.532C79.1137 297.456 79.065 297.366 79.0368 297.269C79.0086 297.172 79.0016 297.07 79.0163 296.97V289.496C79.0106 289.382 79.0337 289.27 79.0834 289.168C79.1331 289.066 79.2077 288.978 79.3003 288.913C79.4473 288.806 79.6303 288.762 79.8095 288.79C79.9887 288.818 80.1495 288.916 80.2571 289.062L84.413 294.788V289.556C84.4169 289.372 84.4926 289.197 84.624 289.068C84.7553 288.94 84.9318 288.868 85.1156 288.868C85.2994 288.868 85.4759 288.94 85.6072 289.068C85.7386 289.197 85.8143 289.372 85.8182 289.556V297.03C85.8144 297.215 85.7392 297.392 85.6082 297.523C85.4773 297.654 85.3008 297.729 85.1156 297.733C85.0146 297.735 84.9145 297.712 84.8236 297.668C84.7327 297.624 84.6535 297.559 84.5924 297.479L80.5112 291.813L80.4066 296.97Z" fill="white"/>
<path d="M94.1746 290.154H92.1565V296.971C92.1565 297.157 92.0824 297.336 91.9507 297.468C91.8189 297.599 91.6402 297.673 91.4539 297.673C91.2675 297.673 91.0888 297.599 90.957 297.468C90.8252 297.336 90.7512 297.157 90.7512 296.971V290.154H88.7331C88.6395 290.154 88.5469 290.135 88.4607 290.099C88.3744 290.063 88.2963 290.01 88.2309 289.943C88.1654 289.876 88.114 289.797 88.0796 289.71C88.0452 289.623 88.0284 289.53 88.0304 289.436C88.0284 289.343 88.0452 289.251 88.0798 289.165C88.1143 289.079 88.166 289 88.2317 288.935C88.2974 288.869 88.3756 288.817 88.4618 288.783C88.548 288.748 88.6402 288.732 88.7331 288.734H94.1746C94.361 288.734 94.5397 288.808 94.6715 288.939C94.8032 289.071 94.8773 289.25 94.8773 289.436C94.8773 289.624 94.8037 289.804 94.6724 289.938C94.541 290.073 94.3623 290.15 94.1746 290.154Z" fill="white"/>
<path d="M97.0744 289.436C97.0723 289.343 97.0891 289.251 97.1237 289.165C97.1583 289.079 97.21 289 97.2756 288.935C97.3413 288.869 97.4195 288.817 97.5057 288.783C97.5919 288.748 97.6842 288.732 97.777 288.734C97.9648 288.734 98.145 288.807 98.2792 288.938C98.4133 289.07 98.4907 289.248 98.4946 289.436V296.911C98.4946 297.004 98.4759 297.097 98.4397 297.183C98.4034 297.269 98.3504 297.348 98.2835 297.413C98.2167 297.478 98.1375 297.53 98.0505 297.564C97.9635 297.599 97.8705 297.615 97.777 297.613C97.6842 297.616 97.5919 297.599 97.5057 297.564C97.4195 297.53 97.3413 297.478 97.2756 297.412C97.21 297.347 97.1583 297.268 97.1237 297.182C97.0891 297.096 97.0723 297.004 97.0744 296.911V289.436Z" fill="white"/>
<path d="M102.352 296.971C102.367 297.07 102.36 297.172 102.331 297.269C102.303 297.366 102.254 297.456 102.188 297.532C102.122 297.608 102.041 297.67 101.949 297.712C101.857 297.754 101.758 297.775 101.657 297.775C101.556 297.775 101.456 297.754 101.364 297.712C101.273 297.67 101.191 297.608 101.125 297.532C101.059 297.456 101.01 297.366 100.982 297.269C100.954 297.172 100.947 297.07 100.962 296.971V289.496C100.956 289.383 100.979 289.27 101.029 289.168C101.078 289.066 101.153 288.978 101.246 288.913C101.395 288.806 101.58 288.761 101.762 288.789C101.944 288.817 102.107 288.915 102.217 289.062L106.343 294.773V289.556C106.368 289.389 106.452 289.236 106.579 289.126C106.707 289.016 106.87 288.955 107.038 288.955C107.207 288.955 107.37 289.016 107.498 289.126C107.625 289.236 107.709 289.389 107.734 289.556V297.03C107.734 297.217 107.66 297.395 107.528 297.527C107.396 297.659 107.217 297.733 107.031 297.733C106.931 297.732 106.832 297.708 106.741 297.664C106.651 297.62 106.571 297.557 106.508 297.479L102.352 291.679V296.971Z" fill="white"/>
<path d="M113.788 297.673C113.303 297.675 112.822 297.581 112.373 297.396C111.924 297.211 111.516 296.939 111.173 296.596C110.83 296.252 110.558 295.845 110.373 295.396C110.188 294.947 110.094 294.466 110.096 293.98V289.496C110.094 289.403 110.111 289.31 110.145 289.224C110.18 289.138 110.231 289.06 110.297 288.994C110.363 288.928 110.441 288.877 110.527 288.842C110.613 288.808 110.706 288.791 110.798 288.793C110.986 288.793 111.167 288.866 111.301 288.998C111.435 289.129 111.512 289.308 111.516 289.496V293.98C111.463 294.305 111.481 294.638 111.569 294.956C111.657 295.273 111.813 295.568 112.027 295.819C112.24 296.07 112.505 296.272 112.804 296.41C113.103 296.548 113.429 296.62 113.758 296.62C114.088 296.62 114.414 296.548 114.713 296.41C115.012 296.272 115.277 296.07 115.49 295.819C115.704 295.568 115.86 295.273 115.948 294.956C116.036 294.638 116.054 294.305 116.001 293.98V289.496C116.001 289.297 116.08 289.107 116.22 288.967C116.36 288.827 116.55 288.748 116.748 288.748C116.947 288.748 117.137 288.827 117.277 288.967C117.417 289.107 117.496 289.297 117.496 289.496V293.98C117.496 294.466 117.4 294.948 117.213 295.397C117.027 295.846 116.753 296.254 116.409 296.597C116.065 296.94 115.656 297.211 115.206 297.396C114.756 297.581 114.275 297.675 113.788 297.673Z" fill="white"/>
<path d="M119.827 296.97V289.496C119.827 289.309 119.901 289.131 120.033 288.999C120.165 288.867 120.344 288.793 120.53 288.793H124.776C124.974 288.793 125.164 288.872 125.304 289.012C125.444 289.152 125.523 289.342 125.523 289.54C125.523 289.739 125.444 289.929 125.304 290.069C125.164 290.209 124.974 290.288 124.776 290.288H121.307V292.62H124.297C124.482 292.624 124.659 292.699 124.79 292.83C124.921 292.961 124.996 293.137 125 293.323C125.002 293.416 124.985 293.509 124.951 293.596C124.916 293.683 124.865 293.762 124.799 293.829C124.734 293.896 124.656 293.949 124.57 293.985C124.483 294.022 124.391 294.04 124.297 294.04H121.307V296.283H124.776C124.962 296.283 125.141 296.357 125.272 296.488C125.404 296.62 125.478 296.799 125.478 296.985C125.478 297.172 125.404 297.35 125.272 297.482C125.141 297.614 124.962 297.688 124.776 297.688H120.59C120.491 297.696 120.392 297.684 120.299 297.651C120.206 297.619 120.12 297.567 120.048 297.499C119.976 297.432 119.919 297.35 119.881 297.258C119.843 297.167 119.825 297.069 119.827 296.97Z" fill="white"/>
<path d="M163.645 293.084C163.664 291.856 164.166 290.684 165.041 289.823C165.917 288.962 167.096 288.479 168.324 288.479C169.405 288.462 170.46 288.815 171.314 289.481C171.461 289.601 171.558 289.773 171.583 289.962C171.608 290.151 171.56 290.343 171.448 290.497C171.33 290.647 171.159 290.747 170.97 290.774C170.781 290.802 170.588 290.757 170.432 290.647C169.847 290.178 169.117 289.93 168.369 289.944C167.513 289.943 166.689 290.269 166.066 290.856C165.477 291.448 165.144 292.248 165.139 293.084C165.139 293.495 165.221 293.903 165.38 294.283C165.539 294.663 165.772 295.007 166.066 295.296C166.688 295.887 167.511 296.219 168.369 296.223C169.117 296.235 169.846 295.986 170.432 295.52C170.587 295.418 170.776 295.378 170.959 295.409C171.143 295.441 171.307 295.541 171.42 295.69C171.532 295.838 171.583 296.024 171.564 296.209C171.544 296.394 171.455 296.565 171.314 296.686C170.459 297.347 169.404 297.696 168.324 297.673C167.096 297.681 165.915 297.203 165.038 296.343C164.161 295.483 163.66 294.311 163.645 293.084Z" fill="#EBEBEB"/>
<path d="M178.295 295.565H175.186L174.558 297.225C174.505 297.356 174.414 297.469 174.297 297.548C174.18 297.628 174.042 297.672 173.9 297.673C173.816 297.688 173.73 297.688 173.646 297.673C173.472 297.6 173.332 297.464 173.255 297.292C173.177 297.12 173.167 296.925 173.227 296.746L176.053 289.271C176.107 289.138 176.2 289.023 176.32 288.943C176.44 288.863 176.581 288.822 176.726 288.823C176.873 288.816 177.018 288.856 177.142 288.936C177.265 289.017 177.36 289.134 177.413 289.271L180.224 296.746C180.257 296.835 180.273 296.929 180.27 297.023C180.267 297.117 180.246 297.21 180.207 297.297C180.168 297.383 180.113 297.46 180.044 297.525C179.975 297.589 179.894 297.64 179.805 297.673C179.726 297.69 179.645 297.69 179.566 297.673C179.423 297.676 179.283 297.634 179.166 297.554C179.048 297.473 178.958 297.358 178.908 297.225L178.295 295.565ZM177.772 294.16L176.726 291.424L175.694 294.16H177.772Z" fill="#EBEBEB"/>
<path d="M183.377 296.971C183.392 297.07 183.385 297.172 183.357 297.269C183.329 297.366 183.28 297.456 183.214 297.532C183.148 297.608 183.066 297.67 182.974 297.712C182.883 297.754 182.783 297.775 182.682 297.775C182.581 297.775 182.481 297.754 182.39 297.712C182.298 297.67 182.216 297.608 182.15 297.532C182.084 297.456 182.036 297.366 182.007 297.269C181.979 297.172 181.972 297.07 181.987 296.971V289.496C181.981 289.383 182.004 289.27 182.054 289.168C182.104 289.066 182.178 288.978 182.271 288.913C182.42 288.806 182.606 288.761 182.787 288.789C182.969 288.817 183.132 288.915 183.243 289.062L187.369 294.773V289.556C187.369 289.465 187.387 289.376 187.421 289.293C187.456 289.209 187.506 289.133 187.57 289.069C187.634 289.006 187.71 288.955 187.793 288.92C187.877 288.886 187.966 288.868 188.056 288.868C188.24 288.868 188.417 288.94 188.548 289.069C188.679 289.197 188.755 289.372 188.759 289.556V297.03C188.759 297.217 188.685 297.395 188.553 297.527C188.421 297.659 188.243 297.733 188.056 297.733C187.955 297.735 187.855 297.713 187.764 297.669C187.673 297.624 187.594 297.559 187.533 297.479L183.437 291.813L183.377 296.971Z" fill="#EBEBEB"/>
<path d="M191.42 293.083C191.447 291.855 191.953 290.686 192.83 289.826C193.707 288.966 194.886 288.483 196.114 288.479C197.195 288.464 198.25 288.817 199.104 289.481C199.249 289.603 199.343 289.776 199.365 289.965C199.387 290.154 199.337 290.344 199.223 290.497C199.108 290.65 198.936 290.752 198.746 290.78C198.556 290.808 198.362 290.76 198.207 290.647C197.63 290.176 196.903 289.927 196.159 289.944C195.303 289.943 194.479 290.269 193.857 290.856C193.56 291.146 193.323 291.492 193.162 291.875C193 292.257 192.916 292.668 192.915 293.083C192.91 293.497 192.991 293.908 193.154 294.288C193.316 294.669 193.555 295.012 193.857 295.296C194.478 295.887 195.301 296.219 196.159 296.223C196.903 296.238 197.629 295.989 198.207 295.52C198.362 295.401 198.557 295.349 198.751 295.374C198.944 295.399 199.119 295.5 199.238 295.655C199.357 295.809 199.41 296.005 199.385 296.198C199.36 296.392 199.259 296.567 199.104 296.686C198.248 297.345 197.194 297.693 196.114 297.673C194.885 297.681 193.702 297.203 192.823 296.344C191.944 295.484 191.44 294.313 191.42 293.083Z" fill="#EBEBEB"/>
<path d="M201.661 296.97V289.496C201.659 289.403 201.676 289.311 201.71 289.224C201.745 289.138 201.796 289.06 201.862 288.994C201.928 288.929 202.006 288.877 202.092 288.842C202.178 288.808 202.271 288.791 202.363 288.793H206.534C206.733 288.793 206.923 288.872 207.063 289.012C207.203 289.152 207.282 289.342 207.282 289.541C207.282 289.739 207.203 289.929 207.063 290.069C206.923 290.209 206.733 290.288 206.534 290.288H203.081V292.62H206.071C206.255 292.628 206.429 292.704 206.56 292.834C206.69 292.964 206.766 293.139 206.774 293.323C206.774 293.511 206.7 293.691 206.569 293.825C206.437 293.959 206.259 294.036 206.071 294.04H203.081V296.283H206.534C206.721 296.283 206.899 296.357 207.031 296.489C207.163 296.62 207.237 296.799 207.237 296.985C207.237 297.172 207.163 297.35 207.031 297.482C206.899 297.614 206.721 297.688 206.534 297.688H202.363C202.269 297.69 202.176 297.673 202.089 297.637C202.001 297.602 201.922 297.549 201.856 297.482C201.791 297.414 201.739 297.334 201.706 297.246C201.672 297.158 201.657 297.065 201.661 296.97Z" fill="#EBEBEB"/>
<path d="M209.225 296.971V289.496C209.25 289.325 209.335 289.17 209.465 289.057C209.596 288.944 209.762 288.882 209.935 288.882C210.107 288.882 210.274 288.944 210.404 289.057C210.535 289.17 210.62 289.325 210.645 289.496V296.283H214.113C214.3 296.283 214.478 296.357 214.61 296.489C214.742 296.621 214.816 296.799 214.816 296.986C214.816 297.172 214.742 297.351 214.61 297.483C214.478 297.614 214.3 297.688 214.113 297.688H209.987C209.889 297.697 209.79 297.684 209.696 297.652C209.603 297.619 209.518 297.568 209.446 297.5C209.374 297.432 209.317 297.35 209.279 297.259C209.241 297.168 209.222 297.07 209.225 296.971Z" fill="#EBEBEB"/>
</svg>
